<svg xmlns="http://www.w3.org/2000/svg" enable-background="new 0 0 468 468" viewBox="0 0 468 468"><circle cx="234" cy="234" r="229" fill="#ffe9b3"/><path fill="#29b6f6" d="M365.343,321.127H234V207.201c0-36.269,29.402-65.671,65.671-65.671h0
						c36.269,0,65.671,29.402,65.671,65.671V321.127z"/><path fill="#00aae5" d="M308.115,142.089c-2.766-0.356-5.58-0.559-8.443-0.559l0,0
						c-36.269,0-65.671,29.43-65.671,65.734v113.863h16.887V207.264C250.887,173.826,275.837,146.239,308.115,142.089z"/><ellipse cx="263.638" cy="135.409" fill="#fbab68" rx="21.109" ry="21.129"/><path fill="#ea8e49" d="M263.638,114.28c8.248,0,15.387,4.739,18.86,11.642c-2.851-1.437-6.069-2.251-9.478-2.251
						c-11.658,0-21.109,9.46-21.109,21.129c0,3.413,0.813,6.634,2.249,9.487c-6.897-3.476-11.63-10.621-11.63-18.878
						C242.529,123.74,251.98,114.28,263.638,114.28z"/><ellipse cx="337.198" cy="135.409" fill="#fbab68" rx="21.109" ry="21.129"/><path fill="#ea8e49" d="M337.198,114.28c-8.248,0-15.387,4.739-18.86,11.642c2.851-1.437,6.069-2.251,9.478-2.251
						c11.658,0,21.109,9.46,21.109,21.129c0,3.413-0.813,6.634-2.249,9.487c6.897-3.476,11.63-10.621,11.63-18.878
						C358.306,123.74,348.856,114.28,337.198,114.28z"/><path fill="#fdd2b5" d="M299.671,175.545L299.671,175.545c-10.363,0-18.763-8.401-18.763-18.763V114.28h37.526v42.502
						C318.435,167.145,310.034,175.545,299.671,175.545z"/><path fill="#f9b995" d="M295.919,156.764V114.28h-15.011v42.484c0,10.372,8.401,18.781,18.763,18.781
						c2.67,0,5.206-0.567,7.505-1.573C300.552,171.073,295.919,164.464,295.919,156.764z"/><ellipse cx="299.671" cy="91.265" fill="#fdd2b5" rx="50.277" ry="50.265"/><path fill="#fbab68" d="M299.671,41c8.097,0,15.741,1.925,22.516,5.325v0c-10.418,27.274-40.73,41.165-68.149,31.231
							l-2.48-0.899C257.818,56.023,276.987,41,299.671,41z"/><path fill="#ea8e49" d="M311.287,42.359c3.819,0.907,7.472,2.246,10.9,3.966v0
							c-10.418,27.274-40.73,41.165-68.149,31.231l-2.48-0.899c0.446-1.472,0.966-2.911,1.54-4.322
							C276.808,76.767,300.922,64.61,311.287,42.359z"/><path fill="#ed4848" d="M234,321.127H102.657V207.201c0-36.269,29.402-65.671,65.671-65.671h0
						c36.269,0,65.671,29.402,65.671,65.671V321.127z"/><path fill="#cc4040" d="M176.772,142.089c-2.766-0.356-5.58-0.559-8.443-0.559l0,0
						c-36.269,0-65.671,29.43-65.671,65.734v113.863h16.887V207.264C119.544,173.826,144.494,146.239,176.772,142.089z"/><path fill="#fdd2b5" d="M168.329,175.545L168.329,175.545c-10.363,0-18.763-8.401-18.763-18.763V114.28h37.526v42.502
						C187.092,167.145,178.691,175.545,168.329,175.545z"/><path fill="#f9b995" d="M164.576,156.764V114.28h-15.011v42.484c0,10.372,8.401,18.781,18.763,18.781
						c2.67,0,5.206-0.567,7.505-1.573C169.21,171.073,164.576,164.464,164.576,156.764z"/><g><ellipse cx="168.329" cy="91.265" fill="#fdd2b5" rx="50.277" ry="50.265"/><path fill="#fbab68" d="M168.329,41c-8.097,0-15.741,1.925-22.516,5.325l0,0c10.417,27.274,40.73,41.165,68.149,31.231
							l2.48-0.899C210.182,56.023,191.013,41,168.329,41z"/><path fill="#ea8e49" d="M156.713,42.359c-3.819,0.907-7.472,2.246-10.9,3.966v0
							c10.418,27.274,40.73,41.165,68.149,31.231l2.48-0.899c-0.446-1.472-0.966-2.911-1.54-4.322
							C191.192,76.767,167.078,64.61,156.713,42.359z"/><path fill="#fbab68" d="M145.813,46.325c-16.459,8.259-27.761,25.275-27.761,44.94c0,1.41,0.073,2.803,0.187,4.183h0
							c15.229,0,27.575-12.364,27.575-27.615V46.325z"/><path fill="#ea8e49" d="M129.31,91.265c0-14.76,6.368-28.027,16.503-37.22v-7.72
							c-16.459,8.259-27.761,25.275-27.761,44.94c0,1.41,0.073,2.803,0.187,4.183c3.956,0,7.714-0.841,11.115-2.343
							C129.329,92.494,129.31,91.882,129.31,91.265z"/></g><g><path fill="#ffd766" d="M187.092,377v-64.716c0-36.331-29.402-65.782-65.671-65.782l0,0
							c-36.269,0-65.671,29.452-65.671,65.782V377H187.092z"/><path fill="#ffc533" d="M72.636,377v-64.764c0-33.438,24.95-61.024,57.228-65.175c-2.766-0.356-5.58-0.559-8.443-0.559
							c-36.269,0-65.671,29.43-65.671,65.734V377H72.636z"/><rect width="29.638" height="50.085" x="55.749" y="326.915" fill="#fdd2b5"/><rect width="15.949" height="50.085" x="55.749" y="326.915" fill="#f9b995"/><g><path fill="#fdd2b5" d="M121.421,280.518L121.421,280.518c-10.363,0-18.763-8.401-18.763-18.763v-42.502h37.526v42.502
						C140.184,272.117,131.783,280.518,121.421,280.518z"/><path fill="#f9b995" d="M117.668,261.737v-42.484h-15.011v42.484c0,10.372,8.401,18.781,18.763,18.781
						c2.67,0,5.206-0.567,7.505-1.573C122.302,276.045,117.668,269.436,117.668,261.737z"/></g><g><ellipse cx="121.421" cy="196.237" fill="#fdd2b5" rx="50.277" ry="50.265"/><path fill="#fbab68" d="M121.421,145.972c-8.097,0-15.741,1.925-22.516,5.325l0,0
							c10.418,27.274,40.73,41.165,68.149,31.231l2.48-0.899C163.274,160.995,144.105,145.972,121.421,145.972z"/><path fill="#ea8e49" d="M109.805,147.331c-3.819,0.907-7.472,2.246-10.9,3.966v0
							c10.418,27.274,40.73,41.165,68.149,31.231l2.48-0.899c-0.446-1.472-0.966-2.911-1.54-4.322
							C144.284,181.739,120.17,169.582,109.805,147.331z"/><path fill="#fbab68" d="M98.905,151.297c-16.459,8.259-27.761,25.275-27.761,44.94c0,1.41,0.073,2.803,0.187,4.183h0
							c15.229,0,27.574-12.364,27.574-27.615V151.297z"/><path fill="#ea8e49" d="M82.402,196.237c0-14.76,6.368-28.027,16.503-37.22v-7.72
							c-16.459,8.259-27.761,25.275-27.761,44.94c0,1.41,0.073,2.803,0.187,4.183c3.956,0,7.714-0.841,11.115-2.343
							C82.421,197.466,82.402,196.854,82.402,196.237z"/></g></g><g><path fill="#9ccc65" d="M412.251,377v-64.716c0-36.331-29.402-65.782-65.671-65.782l0,0
							c-36.269,0-65.671,29.452-65.671,65.782V377H412.251z"/><path fill="#88ad57" d="M395.364,312.236V377h16.887v-64.764c0-36.304-29.402-65.734-65.671-65.734
							c-2.863,0-5.677,0.204-8.443,0.559C370.414,251.212,395.364,278.798,395.364,312.236z"/><rect width="29.638" height="50.085" x="382.613" y="326.915" fill="#fdd2b5"/><rect width="15.949" height="50.085" x="396.302" y="326.915" fill="#f9b995"/><g><path fill="#fdd2b5" d="M346.579,280.518L346.579,280.518c10.363,0,18.763-8.401,18.763-18.763v-42.502h-37.526v42.502
						C327.816,272.117,336.217,280.518,346.579,280.518z"/><path fill="#f9b995" d="M350.332,261.737v-42.484h15.011v42.484c0,10.372-8.401,18.781-18.763,18.781
						c-2.67,0-5.206-0.567-7.505-1.573C345.698,276.045,350.332,269.436,350.332,261.737z"/></g><g><ellipse cx="385.311" cy="234.696" fill="#fbab68" rx="21.109" ry="21.129"/><path fill="#ea8e49" d="M385.311,213.567c-8.248,0-15.387,4.738-18.86,11.642c2.851-1.437,6.069-2.251,9.478-2.251
							c11.658,0,21.109,9.46,21.109,21.129c0,3.413-0.813,6.634-2.249,9.487c6.897-3.476,11.63-10.621,11.63-18.878
							C406.42,223.027,396.969,213.567,385.311,213.567z"/><ellipse cx="346.579" cy="196.237" fill="#fdd2b5" rx="50.277" ry="50.265"/><g><path fill="#fbab68" d="M346.579,145.972c-8.097,0-15.741,1.925-22.516,5.325v0
							c10.418,27.274,40.73,41.165,68.149,31.231l2.48-0.899C388.433,160.995,369.264,145.972,346.579,145.972z"/><path fill="#ea8e49" d="M334.963,147.331c-3.819,0.907-7.472,2.246-10.9,3.966v0
							c10.418,27.274,40.73,41.165,68.149,31.231l2.48-0.899c-0.446-1.472-0.966-2.911-1.54-4.322
							C369.442,181.739,345.329,169.582,334.963,147.331z"/></g></g></g><g><path fill="#ec407a" d="M299.671,428v-69.716c0-36.331-29.402-65.782-65.671-65.782l0,0
							c-36.269,0-65.671,29.452-65.671,65.782V428H299.671z"/><path fill="#d63c77" d="M185.216,428v-69.764c0-33.438,24.95-61.024,57.228-65.175
							c-2.766-0.356-5.58-0.559-8.443-0.559c-36.269,0-65.671,29.43-65.671,65.734V428H185.216z"/><rect width="29.638" height="55.085" x="168.329" y="372.915" fill="#fdd2b5"/><rect width="15.949" height="55.085" x="168.329" y="372.915" fill="#f9b995"/><g><rect width="29.638" height="55.085" x="270.034" y="372.915" fill="#fdd2b5"/><rect width="15.949" height="55.085" x="270.034" y="372.915" fill="#f9b995"/></g><g><path fill="#fdd2b5" d="M234,326.518L234,326.518c-10.363,0-18.763-8.401-18.763-18.763v-42.502h37.526v42.502
						C252.763,318.117,244.363,326.518,234,326.518z"/><path fill="#f9b995" d="M230.247,307.737v-42.484h-15.011v42.484c0,10.372,8.401,18.781,18.763,18.781
						c2.67,0,5.206-0.567,7.505-1.573C234.881,322.045,230.247,315.436,230.247,307.737z"/></g><g><ellipse cx="234" cy="242.237" fill="#fdd2b5" rx="50.277" ry="50.265"/><path fill="#fbab68" d="M274.511,232.542h8.823c-4.52-23.12-24.884-40.57-49.333-40.57
							C234,214.379,252.137,232.542,274.511,232.542z"/><path fill="#ea8e49" d="M234,191.972c0,0.586,0.019,1.167,0.044,1.746c18.238,4.941,32.353,19.89,36.103,38.586
							c1.434,0.154,2.889,0.238,4.364,0.238h8.823C278.813,209.422,258.449,191.972,234,191.972z"/><path fill="#fbab68" d="M234,191.972c-24.449,0-44.813,17.45-49.333,40.57h8.823
							C215.863,232.542,234,214.379,234,191.972z"/><path fill="#ea8e49" d="M233.931,194.278c0.043-0.764,0.069-1.532,0.069-2.306c-24.449,0-44.813,17.45-49.333,40.57
							h8.823c2.142,0,4.243-0.169,6.295-0.49C203.476,214.13,216.699,199.691,233.931,194.278z"/></g></g><g><line x1="72.073" x2="395.927" y1="72.073" y2="395.927" fill="#fff"/></g><path fill="#333" d="M399.463,68.537C355.267,24.34,296.504,0,234,0C171.497,0,112.734,24.34,68.537,68.537
		S0,171.497,0,234s24.34,121.266,68.537,165.463S171.497,468,234,468c62.504,0,121.267-24.34,165.463-68.537
		C443.66,355.266,468,296.504,468,234S443.66,112.734,399.463,68.537z M458,234c0,47.85-15.09,92.238-40.749,128.672v-50.388
		c0-20.978-9.165-39.843-23.692-52.81c10.365-3.462,17.861-13.256,17.861-24.779c0-9.238-4.825-17.357-12.075-22.004
		c1.627-5.2,2.511-10.725,2.511-16.455c0-25.081-16.804-46.3-39.743-53.028c3.575-11.38-1.389-24.157-11.61-30.244
		c2.858-6.666,4.445-14,4.445-21.699c0-30.473-24.797-55.265-55.277-55.265c-30.479,0-55.276,24.792-55.276,55.265
		c0,7.986,1.71,15.577,4.772,22.438c-15.401,10.312-15.213,33.688,0.429,43.717c-6.681,6.718-12.027,14.761-15.594,23.704
		c-7.414-18.595-22.508-33.323-41.345-40.253c18.313-9.014,30.949-27.858,30.949-49.606c0-30.473-24.797-55.265-55.277-55.265
		s-55.277,24.792-55.277,55.265c0,6.156,1.027,12.074,2.894,17.609L79.26,72.189C119.505,33.686,174.037,10,234,10
		C357.514,10,458,110.486,458,234z M285.956,310.393c0.16-5.193,0.97-10.221,2.357-15.01L364.93,372h-60.259v-13.715
		C304.671,339.82,297.563,323.001,285.956,310.393z M270.034,367.915c-2.762,0-5,2.239-5,5V423h-62.068v-50.085c0-2.761-2.239-5-5-5
		h-24.638v-9.63c0-25.067,15.235-46.621,36.908-55.901v5.371c0,13.103,10.66,23.763,23.763,23.763
		c13.104,0,23.764-10.66,23.764-23.763v-5.374c21.674,9.28,36.907,30.836,36.907,55.904v9.63H270.034z M294.671,377.915V423h-19.637
		v-45.085H294.671z M85.387,321.915H60.75v-9.63c0-25.067,15.234-46.62,36.908-55.901v5.371c0,13.103,10.66,23.763,23.763,23.763
		c13.104,0,23.764-10.66,23.764-23.763v-5.382c21.121,9.044,36.119,29.751,36.871,54c-11.614,12.612-18.727,29.44-18.727,47.912V372
		H90.387v-45.085C90.387,324.154,88.148,321.915,85.387,321.915z M80.387,331.915V372H60.75v-40.085H80.387z M103.905,172.806
		v-3.164c14.891,17.933,39.777,25.363,62.056,18.516c4.949,27.333-16.752,53.344-44.541,53.344
		c-21.996,0-40.37-15.765-44.432-36.585C92.261,202.227,103.905,188.857,103.905,172.806z M76.178,194.89
		c0.397-13.478,7.037-26.36,17.727-34.565C93.905,174.577,93.725,191.027,76.178,194.89z M150.813,67.833V64.67
		c14.891,17.933,39.777,25.363,62.056,18.516c0.475,2.624,0.737,5.321,0.737,8.079c0,24.959-20.312,45.265-45.277,45.265
		c-21.996,0-40.37-15.765-44.432-36.584C139.169,97.255,150.813,83.885,150.813,67.833z M123.086,89.917
		c0.397-13.478,7.037-26.36,17.727-34.565C140.813,69.605,140.633,86.054,123.086,89.917z M152.403,48.899
		c22.406-8.447,48.253,2.708,57.613,24.705C187.762,80.453,162.81,69.712,152.403,48.899z M272.262,85.777
		c21.929,0,42.465-12.755,52.236-32.338c12.306,8.1,20.451,22.027,20.451,37.826c0,24.959-20.312,45.265-45.277,45.265
		s-45.276-20.306-45.276-45.265c0-2.759,0.262-5.456,0.737-8.079C260.746,84.911,266.509,85.777,272.262,85.777z M257.984,73.605
		c9.355-21.989,35.189-33.15,57.596-24.713C305.176,69.697,280.24,80.454,257.984,73.605z M346.579,241.502
		c-24.966,0-45.277-20.306-45.277-45.265c0-15.794,8.138-29.716,20.437-37.817c12.543,25.137,42.469,38.008,69.381,29.738
		C396.069,215.491,374.368,241.502,346.579,241.502z M395.393,222.135c3.67,2.958,6.027,7.487,6.027,12.561
		c0,8.893-7.227,16.128-16.108,16.128c-4.754,0-9.492-2.285-12.486-5.973C382.396,239.667,390.27,231.742,395.393,222.135z
		 M360.343,249.768v11.987c0,7.589-6.175,13.763-13.764,13.763s-13.763-6.174-13.763-13.763v-11.987
		C341.776,252.072,351.385,252.071,360.343,249.768z M297.738,170.394c-6.675-0.945-11.83-6.68-11.83-13.611v-11.987
		c8.96,2.304,18.568,2.303,27.526-0.003v7.245C306.948,156.913,301.571,163.183,297.738,170.394z M330.653,153.871
		c22.406-8.446,48.253,2.709,57.613,24.705C366.013,185.423,341.06,174.683,330.653,153.871z M352.182,141.255
		c-9.785-0.989-19.819,0.68-28.747,4.813v-4.917c9.068-4.338,16.778-11.073,22.301-19.383
		C352.159,125.806,354.954,134.196,352.182,141.255z M275.908,141.154v4.672c-2.955,3.489-7.354,5.713-12.271,5.713
		c-8.882,0-16.108-7.235-16.108-16.129c0-5.307,2.583-10.005,6.548-12.942C259.565,130.456,267.093,136.94,275.908,141.154z
		 M260.096,161.291c5.444,0.743,11.042-0.259,15.882-2.87c0.71,10.346,8.059,18.896,17.817,21.387
		c-1.62,5.192-2.494,10.71-2.494,16.428c0,21.756,12.644,40.609,30.967,49.619c-15.922,5.871-29.178,17.307-37.37,31.97
		l-4.937-4.937c5.878-8.777,9.316-19.319,9.316-30.653c0-27.662-20.441-50.618-47.011-54.62
		C245.792,177.314,252.02,168.263,260.096,161.291z M234,287.502c-26.44,0-47.756-23.661-45.034-49.96
		c11.628,0.232,22.725-2.162,32.128-9.377l45.472,45.472C258.326,282.176,246.777,287.502,234,287.502z M247.764,295.768v11.987
		c0,7.589-6.175,13.763-13.764,13.763s-13.763-6.174-13.763-13.763v-11.987C229.196,298.071,238.805,298.071,247.764,295.768z
		 M174.789,181.86l20.744,20.744c-10.356,10.05-16.81,24.099-16.81,39.634c0,21.748,12.635,40.595,30.948,49.609
		c-6.643,2.448-12.818,5.871-18.358,10.089c-3.809-25.906-21.668-47.286-45.564-56.091
		C169.162,234.319,181.598,207.099,174.789,181.86z M154.565,147.494v-2.699c8.959,2.304,18.568,2.303,27.526,0v11.987
		c0,4.939-2.624,9.267-6.543,11.695L154.565,147.494z M202.605,209.676l11.345,11.345c-6.755,4.789-14.596,6.667-22.765,6.522
		C193.542,220.698,197.501,214.597,202.605,209.676z M273.639,280.709l6.773,6.773c-1.729,4.615-2.978,9.459-3.713,14.47
		c-5.546-4.223-11.728-7.65-18.379-10.1C264.054,289.031,269.231,285.245,273.639,280.709z M276.815,227.542
		c-18.19,0.623-34.653-11.919-37.415-30.237C256.425,199.339,271.234,211.339,276.815,227.542z M274.511,237.542h4.523
		c1.01,9.753-1.212,19.735-6.303,28.117l-44.413-44.413c2.197-2.618,4.11-5.481,5.682-8.549
		C241.549,227.431,256.868,237.542,274.511,237.542z M221.224,214.153l-10.634-10.634c5.375-3.26,11.481-5.434,18.01-6.214
		C227.649,203.614,225.034,209.382,221.224,214.153z M203.346,196.275l-20.612-20.612c7.811-5.974,9.617-14.971,9.357-24.249
		c15.725,6.724,28.041,19.898,33.625,36.18C217.539,188.828,209.944,191.862,203.346,196.275z M163.107,178.576
		c-22.254,6.85-47.206-3.892-57.613-24.705C127.901,145.424,153.748,156.58,163.107,178.576z M135.184,249.768v11.987
		c0,7.589-6.174,13.763-13.764,13.763c-7.589,0-13.763-6.174-13.763-13.763v-11.987
		C116.617,252.071,126.226,252.071,135.184,249.768z M173.329,377.915h19.638V423h-19.638V377.915z M292.282,285.211
		c6.422-12.873,17.273-23.147,30.535-28.831v5.375c0,13.103,10.66,23.763,23.763,23.763c13.104,0,23.764-10.66,23.764-23.763v-5.378
		c21.675,9.281,36.908,30.84,36.908,55.909v9.63h-24.638c-2.762,0-5,2.239-5,5v43.627L292.282,285.211z M387.613,331.915h19.638V372
		h-19.638V331.915z M72.189,79.26l63.624,63.624c-4.592-1.24-9.414-1.912-14.393-1.912c-30.48,0-55.277,24.792-55.277,55.265
		c0,21.749,12.637,40.594,30.951,49.608c-27.017,9.952-46.345,35.97-46.345,66.44v50.388C25.09,326.239,10,281.851,10,234
		C10,174.037,33.686,119.505,72.189,79.26z M66.011,382h97.317v46c0,2.761,2.239,5,5,5h131.342c2.762,0,5-2.239,5-5v-46h70.259
		l13.811,13.811C348.495,434.314,293.963,458,234,458C167.167,458,107.088,428.57,66.011,382z M395.811,388.74l-6.74-6.74h12.917
		C399.972,384.286,397.918,386.538,395.811,388.74z"/></svg>