<svg xmlns="http://www.w3.org/2000/svg" enable-background="new 0 0 468 468" viewBox="0 0 468 468"><path fill="#99695c" d="M443,432H327.631c-11.046,0-20-8.954-20-20V264.936c0-17.089,8.29-33.116,22.238-42.991l0,0
					c14.04-9.941,22.342-26.111,22.237-43.313l-0.117-19.165h64.93l-0.023,16.603c-0.026,18.252,8.841,35.372,23.763,45.883l0,0
					c14.008,9.867,22.342,25.93,22.342,43.064V412C463,423.046,454.046,432,443,432z"/><path fill="#895b52" d="M325.631,419V271.936c0-17.089,8.29-33.116,22.238-42.991v0
					c14.04-9.94,22.342-26.111,22.237-43.313l-0.078-26.165h-18.039l0.117,19.165c0.105,17.203-8.196,33.373-22.237,43.313v0
					c-13.947,9.875-22.238,25.902-22.238,42.991V412c0,11.045,8.954,20,20,20h2.82C327.453,428.503,325.631,423.968,325.631,419z"/><path fill="#9ccc65" d="M420.8,159.467h-72.693v-34.706c0-2.209,1.791-4,4-4H416.8c2.209,0,4,1.791,4,4V159.467z"/><path fill="#88ad57" d="M352.106,120.761c-2.209,0-4,1.791-4,4v34.706h20v-38.706H352.106z"/><path fill="#e0e0e0" d="M416.918,120.761h-64.93V99.183c0-4.418,3.582-8,8-8h48.93c4.418,0,8,3.582,8,8V120.761z"/><path fill="#c9c9c9" d="M359.988,91.183c-4.418,0-8,3.582-8,8v21.578h18V91.183H359.988z"/><path fill="#ffd766" d="M403.117,91.183h-37.328V69.4c0-3.314,2.686-6,6-6h25.328c3.314,0,6,2.686,6,6V91.183z"/><path fill="#ffc533" d="M371.789,63.4c-3.314,0-6,2.686-6,6v21.783h16V63.4H371.789z"/><ellipse cx="385.316" cy="332.678" fill="#e0e0e0" rx="45.601" ry="45.948"/><path fill="#c9c9c9" d="M357.715,332.678c0-22.272,15.728-40.838,36.601-45.049c-2.91-0.587-5.919-0.899-9-0.899
					c-25.185,0-45.601,20.572-45.601,45.948c0,25.376,20.416,45.948,45.601,45.948c3.081,0,6.09-0.312,9-0.899
					C373.442,373.516,357.715,354.949,357.715,332.678z"/><path fill="#333" d="M443.537,217.865c-13.575-9.562-21.666-25.184-21.643-41.788l0.017-11.744
				c2.225-0.507,3.889-2.488,3.889-4.866v-34.706c0-3.061-1.539-5.767-3.882-7.394V99.183c0-7.168-5.832-13-13-13h-0.801V69.4
				c0-6.065-4.935-11-11-11h-6.802V36c0-2.761-2.238-5-5-5H247.523c-2.762,0-5,2.239-5,5s2.238,5,5,5h132.792v17.4h-8.526
				c-6.065,0-11,4.935-11,11v16.783h-0.801c-7.168,0-13,5.832-13,13v18.184c-2.343,1.627-3.882,4.332-3.882,7.394v34.706
				c0,2.386,1.675,4.375,3.911,4.873l0.088,14.322c0.096,15.557-7.428,30.212-20.126,39.202
				c-15.246,10.794-24.349,28.391-24.349,47.071V412c0,13.785,11.215,25,25,25H443c13.785,0,25-11.215,25-25V265.017
				C468,246.281,458.855,228.654,443.537,217.865z M370.789,69.4c0-0.551,0.448-1,1-1h25.328c0.552,0,1,0.449,1,1v16.783h-27.328
				V69.4z M356.988,99.183c0-1.654,1.346-3,3-3h48.93c1.654,0,3,1.346,3,3v16.578h-54.93V99.183z M353.106,125.761H415.8v28.706
				h-62.693V125.761z M385.315,291.73c22.388,0,40.602,18.369,40.602,40.948c0,22.579-18.214,40.948-40.602,40.948
				s-40.601-18.369-40.601-40.948C344.715,310.099,362.928,291.73,385.315,291.73z M458,412c0,8.271-6.729,15-15,15H327.631
				c-8.271,0-15-6.729-15-15V264.936c0-15.441,7.524-29.987,20.128-38.91c15.36-10.875,24.462-28.604,24.347-47.425l-0.087-14.134
				h23.297v117.514c-25.563,2.537-45.601,24.304-45.601,50.697c0,28.093,22.699,50.948,50.601,50.948s50.602-22.855,50.602-50.948
				c0-26.394-20.039-48.161-45.602-50.697V164.467h21.596l-0.017,11.596c-0.027,19.858,9.648,38.542,25.885,49.978
				C450.44,234.959,458,249.53,458,265.017V412z"/><path fill="#333" d="M406.011,327.678h-15.695v-15.853c0-2.761-2.238-5-5-5s-5,2.239-5,5v15.853h-15.694
				c-2.762,0-5,2.239-5,5s2.238,5,5,5h15.694v15.852c0,2.761,2.238,5,5,5s5-2.239,5-5v-15.852h15.695c2.762,0,5-2.239,5-5
				S408.772,327.678,406.011,327.678z"/><path fill="#fdd2b5" d="M42.854,289.801v-95.929l0,0c19.252-20.453,44.455-34.417,72.085-39.942l45.582-9.114
						c6.586-1.224,11.88,5.351,9.233,11.467l0,0c-5.896,13.618-16.783,24.498-30.454,30.434l-11.26,4.889h97.731
						c8.125,0,14.711,6.544,14.711,14.617v0c0,8.073-6.587,14.617-14.711,14.617h-81.493l0,0h109.126
						c7.505,0,13.589,6.045,13.589,13.501v0c0,7.457-6.084,13.501-13.589,13.501H144.342l0,0h82.281
						c7.654,0,13.858,6.165,13.858,13.769v0c0,7.605-6.204,13.769-13.858,13.769h-82.281l0,0h50.638
						c7.987,0,14.462,6.433,14.462,14.369v0c0,7.936-6.475,14.369-14.462,14.369h-58.822h0c-30.602,4.032-61.73-0.412-89.952-12.841
						L42.854,289.801z"/><path fill="#f9b995" d="M54.926,205.918c19.252-20.453,44.455-34.417,72.085-39.942l42.159-8.43
						c0.195-0.421,0.399-0.837,0.584-1.264l0,0c2.648-6.116-2.647-12.691-9.233-11.466l-45.582,9.114
						c-27.631,5.525-52.833,19.49-72.085,39.942v24.093L54.926,205.918z"/><rect width="37.854" height="96.585" x="5" y="192.77" fill="#ec407a"/><rect width="37.854" height="16.062" x="5" y="192.77" fill="#d63c77"/><g><path fill="#fdd2b5" d="M161.202,392.629l-67.978-67.832v0c-0.88-28.046,7.045-55.704,22.668-79.106l25.773-38.607
						c3.79-5.513,12.192-4.599,14.654,1.594l0,0c5.481,13.789,5.493,29.164,0.032,43.008l-4.497,11.402l69.106-68.958
						c5.745-5.733,15.04-5.753,20.76-0.045l0,0c5.721,5.708,5.701,14.983-0.045,20.716l-57.624,57.501l0,0l77.164-76.999
						c5.307-5.295,13.892-5.314,19.176-0.041v0c5.284,5.273,5.266,13.84-0.041,19.135l-77.118,76.953l0,0l58.182-58.057
						c5.412-5.4,14.168-5.419,19.556-0.042l0,0c5.389,5.377,5.37,14.114-0.042,19.514l-58.182,58.057l0,0l35.807-35.73
						c5.648-5.636,14.785-5.655,20.408-0.044l0,0c5.623,5.611,5.604,14.729-0.044,20.365l-41.593,41.504l0,0
						c-18.782,24.444-43.942,43.266-72.705,54.39L161.202,392.629z"/><path fill="#f9b995" d="M110.297,324.797c-0.88-28.046,7.045-55.704,22.668-79.106l23.837-35.708
						c-0.161-0.435-0.311-0.873-0.483-1.306l0,0c-2.462-6.193-10.864-7.106-14.654-1.593l-25.773,38.607
						c-15.623,23.403-23.548,51.06-22.668,79.106l17.073,17.036V324.797z"/><g><polygon fill="#ec407a" points="65.678 350.727 134.12 419.024 160.887 392.314 92.444 324.018"/><polygon fill="#d63c77" points="92.444 324.018 65.678 350.728 77.059 362.085 103.826 335.375"/></g></g><path fill="#333" d="M274.139,266.604l10.321-10.3c7.256-7.241,7.311-19.341,0.042-26.594
			c-2.241-2.236-4.915-3.788-7.757-4.652l7.139-7.123c7.152-7.138,7.206-19.065,0.04-26.214c-7.223-7.208-18.994-7.189-26.24,0.041
			l-7.396,7.38c-0.892-3.222-2.605-6.173-5.036-8.598c-5.939-5.926-14.772-7.223-22.026-3.94h-73.075
			c10.681-6.782,19.104-16.586,24.191-28.337c4.199-9.704-4.504-20.272-14.803-18.355c-43.085,8.615-85.126,15.012-117.711,47.858H5
			c-2.762,0-5,2.239-5,5v96.585c0,2.761,2.238,5,5,5h35.799c15.279,6.876,31.262,11.838,47.857,14.297
			c-0.352,4.163-0.514,8.357-0.492,12.572l-26.019,25.963c-1.957,2.36-1.957,4.719,0,7.079l68.442,68.296
			c2.355,1.947,4.709,1.947,7.063,0l25.314-25.259c30.785-11.652,57.954-30.932,78.123-57.078l41.362-41.274
			c7.487-7.472,7.545-19.958,0.044-27.443C280.089,269.109,277.201,267.474,274.139,266.604z M37.854,284.355H10V197.77h27.854
			V284.355z M48.223,286.702l-0.369-0.163v-90.663c31.128-32.102,72.054-37.842,113.581-46.145c2.588-0.485,4.797,2.101,3.73,4.564
			c-7.591,17.536-22.558,25.533-39.116,32.724c-4.856,2.108-3.303,9.586,1.991,9.586h83.36l-19.275,19.234h-28.331
			c-0.713-3.047-1.655-6.058-2.828-9.009c-3.901-9.814-17.527-11.154-23.459-2.522l-25.772,38.607
			c-11.367,17.028-18.746,35.984-21.867,55.821C75.576,296.596,61.567,292.579,48.223,286.702z M165.295,225.839h16.808
			l-18.169,18.13C165.268,237.995,165.716,231.895,165.295,225.839z M134.12,411.96l-61.363-61.232l19.688-19.646l61.363,61.233
			L134.12,411.96z M275.386,291.874l-41.593,41.504c-0.154,0.154-0.299,0.319-0.433,0.493
			c-18.23,23.726-42.624,41.975-70.543,52.773l-0.385,0.149l-64.258-64.121c-0.435-26.466,7.11-52.084,21.876-74.206l25.734-38.55
			c1.495-2.176,4.898-1.884,5.888,0.608c7.111,17.888,2.147,33.952-4.47,50.729c-0.869,2.203-0.073,4.714,1.907,6.014
			c1.979,1.3,4.6,1.033,6.276-0.64l69.105-68.958c3.788-3.779,9.934-3.8,13.696-0.045c3.718,3.71,3.681,9.873,0.001,13.593
			l-57.656,57.532l-0.014,0.013c-1.954,1.951-1.958,5.117-0.007,7.071c1.95,1.955,5.115,1.958,7.071,0.008l77.164-77
			c3.351-3.343,8.784-3.362,12.113-0.041c3.302,3.295,3.248,8.773-0.041,12.056l-77.119,76.953v0
			c-1.955,1.95-1.959,5.116-0.008,7.071c1.95,1.955,5.116,1.958,7.07,0.008l58.253-58.127c3.461-3.378,9.014-3.374,12.422,0.027
			c3.407,3.399,3.352,9.05-0.042,12.436l-58.182,58.057v0c-1.954,1.95-1.958,5.116-0.007,7.071c1.95,1.955,5.115,1.958,7.071,0.008
			l35.807-35.73c3.691-3.684,9.677-3.703,13.345-0.043C279.07,282.219,279.012,288.257,275.386,291.874z"/><g><path fill="#29b6f6" d="M228.365,99.922c-0.226-10.254,19.259-34.036,19.259-34.036s20.509,22.552,20.735,32.806
				c0.227,10.254-8.543,18.843-19.587,19.183C237.728,118.214,228.591,110.176,228.365,99.922z"/><path fill="#00aae5" d="M242.365,99.922c-0.138-6.227,6.992-17.437,12.615-25.287c-4.006-5.066-7.356-8.75-7.356-8.75
				s-19.485,23.782-19.259,34.036c0.227,10.255,9.363,18.292,20.407,17.952c2.227-0.069,4.354-0.486,6.34-1.172
				C247.793,114.141,242.536,107.667,242.365,99.922z"/><path fill="#333" d="M248.119,122.884c-12.688,0-24.463-9.772-24.753-22.852c-0.254-11.52,16.94-33.105,20.391-37.316
				c2.463-2.375,4.985-2.439,7.566-0.195c3.635,3.997,21.779,24.52,22.034,36.06c0.286,12.971-10.674,23.867-24.433,24.291
				C248.656,122.88,248.388,122.884,248.119,122.884z M247.824,73.725c-6.953,9.199-14.568,21.188-14.46,26.087
				c0.174,7.875,7.805,13.271,15.254,13.065c8.294-0.255,14.907-6.569,14.741-14.075C263.252,93.923,255.154,82.466,247.824,73.725z
				"/></g></svg>