<svg xmlns="http://www.w3.org/2000/svg" enable-background="new 0 0 468 468" viewBox="0 0 468 468"><path fill="#fdd2b5" d="M44.91,360.276V258.919l0,0c20.298-21.61,46.869-36.365,76.001-42.202l48.058-9.63
						c6.944-1.293,12.526,5.654,9.734,12.115l0,0c-6.216,14.388-17.694,25.884-32.108,32.156l-11.871,5.166h103.039
						c8.566,0,15.51,6.914,15.51,15.444v0c0,8.529-6.944,15.444-15.51,15.444h-85.919l0,0h115.054
						c7.912,0,14.327,6.387,14.327,14.265v0c0,7.879-6.414,14.265-14.327,14.265H151.911l0,0h86.751
						c8.069,0,14.611,6.513,14.611,14.548v0c0,8.035-6.542,14.548-14.611,14.548h-86.751l0,0H205.3
						c8.421,0,15.247,6.797,15.247,15.182v0c0,8.385-6.827,15.182-15.247,15.182h-62.017h0c-32.264,4.26-65.083-0.435-94.838-13.567
						L44.91,360.276z"/><path fill="#f9b995" d="M57.638,271.647c20.298-21.61,46.869-36.365,76.001-42.202l44.449-8.907
						c0.205-0.445,0.42-0.885,0.615-1.336l0,0c2.791-6.462-2.79-13.409-9.734-12.115l-48.058,9.63
						c-29.131,5.838-55.703,20.592-76.001,42.202v25.456L57.638,271.647z"/><rect width="39.91" height="102.05" x="5" y="257.755" fill="#ec407a"/><rect width="39.91" height="16.971" x="5" y="257.755" fill="#d63c77"/><path fill="#29b6f6" d="M131.215,367.326c18.819,18.819,49.33,18.819,68.149,0c1.797-1.797,3.42-3.702,4.874-5.693
					c15.719,3.557,42.861-0.771,55.099-13.009c18.964-18.964,18.964-49.71,0-68.674c-6.586-6.586-14.595-10.88-23.037-12.891
					c10.169-13.985,5.19-43.761-13.423-54.225c-17.217-9.679-36.849-6.027-50.815,7.939c-6.292,6.292-9.74,14.346-10.362,22.574
					c-12.698-3.719-26.979-0.573-36.995,9.443c-14.607,14.607-14.607,38.29,0,52.898c0.21,0.21,0.428,0.406,0.642,0.61
					C112.668,325.042,114.618,350.729,131.215,367.326z"/><path fill="#00aae5" d="M146.215,373.326c-16.597-16.597-18.547-42.284-5.869-61.029c-0.214-0.204-0.432-0.4-0.642-0.61
					c-14.607-14.607-14.607-38.291,0-52.898c10.016-10.016,24.297-13.162,36.995-9.443c0.623-8.228,4.07-16.281,10.362-22.573
					c10.535-10.535,24.295-15.197,37.809-12.699c-0.648-0.436-1.309-0.855-1.994-1.24c-17.217-9.679-36.849-6.027-50.815,7.939
					c-6.292,6.292-9.74,14.346-10.362,22.573c-12.698-3.719-26.979-0.573-36.995,9.443c-14.607,14.607-14.607,38.29,0,52.898
					c0.21,0.21,0.428,0.406,0.642,0.61c-12.678,18.745-10.728,44.432,5.869,61.029c6.81,6.81,15.153,11.142,23.917,13.023
					C151.961,378.405,148.961,376.072,146.215,373.326z"/><path fill="#fdd2b5" d="M211.86,435.112l-71.67-71.67v0c-0.928-29.633,7.428-58.855,23.899-83.582l27.172-40.791
						c3.996-5.825,12.855-4.859,15.45,1.684l0,0c5.779,14.569,5.791,30.814,0.034,45.442l-4.741,12.047l72.86-72.86
						c6.057-6.057,15.857-6.078,21.888-0.047v0c6.031,6.031,6.01,15.831-0.047,21.888l-60.754,60.754l0,0l81.355-81.355
						c5.595-5.595,14.647-5.614,20.218-0.043l0,0c5.571,5.571,5.551,14.623-0.043,20.218l-81.307,81.307l0,0l61.342-61.342
						c5.706-5.706,14.937-5.726,20.619-0.044l0,0c5.681,5.681,5.662,14.913-0.044,20.619l-61.342,61.342l0,0l37.752-37.752
						c5.954-5.954,15.588-5.975,21.517-0.046l0,0c5.929,5.929,5.908,15.562-0.046,21.517l-43.853,43.853l0,0
						c-19.802,25.827-46.329,45.713-76.654,57.467L211.86,435.112z"/><path fill="#f9b995" d="M158.19,363.442c-0.928-29.633,7.428-58.855,23.899-83.582l25.132-37.728
						c-0.17-0.46-0.328-0.923-0.51-1.38l0,0c-2.595-6.543-11.454-7.508-15.45-1.684l-27.172,40.791
						c-16.471,24.727-24.827,53.949-23.899,83.582l18,18V363.442z"/><rect width="102.05" height="39.91" x="110.312" y="392.855" fill="#ec407a" transform="rotate(-134.999 161.336 412.812)"/><rect width="39.91" height="16.971" x="111.301" y="374.244" fill="#d63c77" transform="rotate(-45.001 131.254 382.734)"/><path fill="#333" d="M330.402,302.092l11.222-11.222c7.646-7.646,7.666-20.067,0.045-27.69
			c-2.45-2.45-5.396-4.111-8.521-4.982l7.868-7.868c7.431-7.433,7.487-19.843,0.042-27.289c-7.511-7.511-19.752-7.493-27.288,0.043
			l-8.127,8.127c-0.889-3.533-2.716-6.772-5.356-9.413c-7.875-7.876-21.099-7.813-28.959,0.046l-24.894,24.893
			c-0.571-14.902-7.703-30.728-21.107-38.263c-13.915-7.824-29.835-7.905-43.594-0.899c-3.085-4.194-8.631-6.347-13.748-5.393
			l-48.058,9.63c-29.071,5.826-55.253,19.965-75.987,40.941H5c-2.762,0-5,2.239-5,5v102.05c0,2.761,2.238,5,5,5h37.807
			c22.031,10.222,46.055,16.057,70.328,16.975l-5.524,5.524c-1.953,1.953-1.953,5.119,0,7.071l72.16,72.16
			c2.357,1.952,4.714,1.952,7.07,0l26.736-26.736c32.443-11.96,61.197-32.82,82.306-60.246l43.62-43.622
			c7.896-7.894,7.916-20.719,0.047-28.588C336.979,304.772,333.835,302.982,330.402,302.092z M39.91,354.805H10v-92.05h29.91
			V354.805z M220.427,217.193c13.223,7.434,19.005,26.737,14.771,40.783l-20.938,20.938c3.155-13.268,2.188-27.176-2.901-40.004
			c-4.028-10.16-18.125-11.554-24.258-2.612l-27.173,40.792c-16.438,24.675-24.953,53.186-24.782,82.68l-2.147,2.148
			c-13.005-14.643-14.585-36.444-3.511-52.817c1.712-2.532,0.656-5.063-1.248-6.947c-23.082-23.082,0.575-63.226,32.055-54.006
			c3.08,0.903,6.167-1.45,6.391-4.421C168.611,218.324,199.426,205.389,220.427,217.193z M50.465,357.262l-0.555-0.245v-96.098
			c19.503-20.189,44.349-33.762,71.982-39.3l47.991-9.617c1.674-0.314,2.789,0.435,3.381,1.017
			c-7.814,6.18-13.569,14.488-15.721,24.297c-38.124-5.807-63.637,40.546-38.488,69.635c-11.33,19.872-8.611,45.018,6.858,62.05
			l-2.87,2.87C98.145,372.307,73.381,367.376,50.465,357.262z M183.307,455.929l-65.089-65.089l21.148-21.149l65.09,65.089
			L183.307,455.929z M332.434,328.86l-43.852,43.853c-0.155,0.155-0.3,0.32-0.433,0.493c-19.253,25.109-45.012,44.421-74.493,55.848
			l-0.565,0.219l-67.952-67.952c-0.486-28.067,7.486-55.233,23.11-78.688l27.135-40.735c1.703-2.48,5.554-2.133,6.679,0.699
			c5.33,13.438,5.341,28.271,0.029,41.767l-4.741,12.047c-1.94,4.925,4.445,9.106,8.188,5.367l72.859-72.86
			c4.101-4.098,10.746-4.119,14.817-0.047c4.072,4.073,4.051,10.72-0.047,14.817l-60.754,60.754c-4.571,4.571,2.5,11.643,7.07,7.071
			l81.355-81.355c3.638-3.636,9.535-3.655,13.147-0.043c3.593,3.593,3.536,9.567-0.043,13.146l-81.308,81.307
			c-4.572,4.571,2.5,11.643,7.07,7.071l61.391-61.391c3.752-3.699,9.794-3.702,13.499,0.004c3.723,3.723,3.703,9.801-0.044,13.548
			l-61.342,61.342c-4.572,4.571,2.5,11.644,7.07,7.071l37.753-37.751c3.899-3.901,10.531-3.961,14.445-0.046
			C336.428,318.363,336.366,324.928,332.434,328.86z"/><path fill="#29b6f6" d="M239.365,181.895c-0.226-10.255,19.259-34.037,19.259-34.037s20.509,22.552,20.735,32.807
				c0.227,10.255-8.543,18.843-19.587,19.183C248.728,200.187,239.591,192.15,239.365,181.895z"/><path fill="#00aae5" d="M253.365,181.895c-0.138-6.228,6.992-17.438,12.615-25.287c-4.006-5.066-7.356-8.75-7.356-8.75
				s-19.485,23.783-19.259,34.037c0.227,10.255,9.363,18.292,20.407,17.953c2.227-0.069,4.354-0.486,6.34-1.172
				C258.793,196.115,253.536,189.64,253.365,181.895z"/><path fill="#333" d="M259.119,204.858c-12.688,0-24.463-9.772-24.753-22.853c-0.254-11.52,16.94-33.106,20.391-37.316
				c2.463-2.375,4.985-2.439,7.566-0.195c3.635,3.997,21.779,24.521,22.034,36.06c0.286,12.971-10.674,23.868-24.433,24.291
				C259.656,204.854,259.388,204.857,259.119,204.858z M258.82,155.702c-6.951,9.198-14.564,21.185-14.456,26.083
				c0.174,7.868,7.805,13.285,15.254,13.065c8.294-0.255,14.907-6.569,14.741-14.075
				C274.253,175.958,266.046,164.346,258.82,155.702z"/><path fill="#e0e0e0" d="M377.141,70.602c-7.254-10.204-19.574-18.704-33.557-18.704s-26.303,8.5-33.557,18.704h-40.882
				c-16.484,0-29.88,13.299-29.999,29.782L239,130.614l36.897,0.292l0.127-28.889h34.004c7.254,10.204,19.574,18.704,33.557,18.704
				s26.303-8.5,33.557-18.704h59.621V70.602H377.141z"/><path fill="#c9c9c9" d="M343.584,104.72c-13.282,0-25.063-7.668-32.427-17.182c-0.749-0.968-1.911-1.522-3.134-1.522H273
				c-5.514,0-9.987,4.463-10,9.976l-0.082,34.81l12.979,0.103l0.127-28.889h34.004c7.254,10.204,19.574,18.704,33.557,18.704
				s26.303-8.5,33.557-18.704h59.621v-16h-57.616c-1.224,0-2.385,0.554-3.134,1.522C368.647,97.052,356.866,104.72,343.584,104.72z"/><path fill="#ec407a" d="M432.635,6.47c-4.953,0-9.339,2.532-12.114,6.433h-30.116C387.752,8.176,382.911,5,377.36,5
			c-8.395,0-15.201,7.242-15.201,16.175c0,8.933,6.805,16.174,15.201,16.174c5.273,0,9.917-2.859,12.643-7.199h3.745v40.452h21.341
			V30.15h4.087c2.542,5.151,7.611,8.669,13.458,8.669c8.395,0,15.201-7.242,15.201-16.175C447.835,13.712,441.03,6.47,432.635,6.47z
			"/><rect width="26.238" height="56.745" x="436.762" y="57.905" fill="#ec407a"/><rect width="26.238" height="16" x="436.762" y="98.65" fill="#d63c77"/><path fill="#333" d="M463,52.905h-26.238c-2.762,0-5,2.239-5,5v7.697h-11.673V39.249
			c3.502,2.915,7.891,4.57,12.546,4.57c11.139,0,20.2-9.499,20.2-21.174s-9.062-21.175-20.2-21.175
			c-5.547,0-10.699,2.315-14.486,6.433h-25.069C389.275,2.966,383.483,0,377.36,0c-11.139,0-20.201,9.499-20.201,21.175
			s9.063,21.174,20.201,21.174c4.135,0,8.084-1.313,11.388-3.679v26.932h-9.115c-19.11-24.017-52.981-24.024-72.097,0h-38.39
			c-19.159,0-34.86,15.587-35,34.758L234,130.589c-0.014,2.756,2.205,5.002,4.961,5.024l36.896,0.292
			c2.559-0.377,5.026-2.007,5.039-4.978l0.105-23.911h26.533c19.113,24.017,52.98,24.024,72.099,0h52.128v7.634c0,2.761,2.238,5,5,5
			H463c2.762,0,5-2.239,5-5V57.905C468,55.144,465.762,52.905,463,52.905z M393.748,25.15h-3.745c-1.72,0-3.319,0.884-4.234,2.34
			c-1.91,3.042-5.054,4.858-8.408,4.858c-5.625,0-10.201-5.013-10.201-11.174S371.735,10,377.36,10c3.558,0,6.805,2,8.685,5.351
			c0.885,1.577,2.553,2.553,4.36,2.553h30.116c1.618,0,3.137-0.783,4.074-2.102c1.958-2.752,4.888-4.331,8.039-4.331
			c5.624,0,10.2,5.013,10.2,11.175s-4.576,11.174-10.2,11.174c-3.745,0-7.184-2.254-8.975-5.882
			c-0.842-1.707-2.58-2.787-4.483-2.787h-4.088c-2.762,0-5,2.239-5,5v35.452h-11.341V30.15
			C398.748,27.389,396.51,25.15,393.748,25.15z M431.762,97.016h-54.62c-1.619,0-3.138,0.784-4.075,2.103
			c-15.079,21.212-43.874,21.227-58.964,0c-0.938-1.319-2.456-2.103-4.075-2.103h-34.004c-2.753,0-4.988,2.225-5,4.978
			l-0.104,23.872l-26.895-0.212l0.122-25.232c0.1-13.685,11.314-24.819,25-24.819h40.881c1.619,0,3.138-0.784,4.075-2.103
			c15.079-21.211,43.874-21.226,58.964,0c0.938,1.319,2.456,2.103,4.075,2.103h54.62V97.016z M458,109.65h-16.238V62.905H458V109.65
			z"/><g><circle cx="430.797" cy="225.203" r="18.655" fill="#29b6f6"/><path fill="#00aae5" d="M425.142,225.203c0-8.013,5.062-14.826,12.155-17.467c-2.027-0.755-4.21-1.187-6.5-1.187
				c-10.303,0-18.655,8.352-18.655,18.655s8.352,18.655,18.655,18.655c2.29,0,4.473-0.433,6.5-1.187
				C430.204,240.029,425.142,233.216,425.142,225.203z"/><circle cx="442.451" cy="220.825" r="7" fill="#fff"/><path fill="#333" d="M430.797,248.858c-13.044,0-23.655-10.611-23.655-23.654c0-13.043,10.611-23.655,23.655-23.655
				c13.043,0,23.654,10.611,23.654,23.655C454.451,238.247,443.84,248.858,430.797,248.858z M430.797,211.549
				c-7.529,0-13.655,6.125-13.655,13.655c0,7.529,6.126,13.654,13.655,13.654s13.654-6.125,13.654-13.654
				C444.451,217.674,438.326,211.549,430.797,211.549z"/></g><g><circle cx="390.797" cy="315.203" r="18.655" fill="#29b6f6"/><path fill="#00aae5" d="M385.142,315.203c0-8.013,5.062-14.826,12.155-17.467c-2.027-0.755-4.21-1.187-6.5-1.187
				c-10.303,0-18.655,8.352-18.655,18.655s8.352,18.655,18.655,18.655c2.29,0,4.473-0.433,6.5-1.187
				C390.204,330.029,385.142,323.216,385.142,315.203z"/><circle cx="398.297" cy="306.78" r="7" fill="#fff"/><path fill="#333" d="M390.797,338.858c-13.044,0-23.655-10.611-23.655-23.654c0-13.043,10.611-23.655,23.655-23.655
				c13.043,0,23.654,10.611,23.654,23.655C414.451,328.247,403.84,338.858,390.797,338.858z M390.797,301.549
				c-7.529,0-13.655,6.125-13.655,13.655c0,7.529,6.126,13.654,13.655,13.654s13.654-6.125,13.654-13.654
				C404.451,307.674,398.326,301.549,390.797,301.549z"/></g><g><circle cx="346.898" cy="407.735" r="18.655" fill="#29b6f6"/><path fill="#00aae5" d="M341.244,407.735c0-8.013,5.062-14.826,12.155-17.467c-2.027-0.755-4.21-1.187-6.5-1.187
				c-10.303,0-18.655,8.352-18.655,18.655s8.352,18.655,18.655,18.655c2.29,0,4.473-0.433,6.5-1.187
				C346.306,422.561,341.244,415.748,341.244,407.735z"/><circle cx="357.297" cy="400.735" r="7" fill="#fff"/><path fill="#333" d="M346.898,431.39c-13.044,0-23.655-10.611-23.655-23.654c0-13.043,10.611-23.655,23.655-23.655
				c13.043,0,23.654,10.611,23.654,23.655C370.553,420.778,359.941,431.39,346.898,431.39z M346.898,394.081
				c-7.529,0-13.655,6.125-13.655,13.655c0,7.529,6.126,13.654,13.655,13.654s13.654-6.125,13.654-13.654
				C360.553,400.206,354.428,394.081,346.898,394.081z"/></g><g><circle cx="350.797" cy="165.203" r="18.655" fill="#29b6f6"/><path fill="#00aae5" d="M345.142,165.203c0-8.013,5.062-14.826,12.155-17.467c-2.027-0.755-4.21-1.187-6.5-1.187
				c-10.303,0-18.655,8.352-18.655,18.655s8.352,18.655,18.655,18.655c2.29,0,4.473-0.433,6.5-1.187
				C350.204,180.029,345.142,173.216,345.142,165.203z"/><circle cx="362.451" cy="160.825" r="7" fill="#fff"/><path fill="#333" d="M350.797,188.858c-13.044,0-23.655-10.611-23.655-23.654c0-13.043,10.611-23.655,23.655-23.655
				c13.043,0,23.654,10.611,23.654,23.655C374.451,178.247,363.84,188.858,350.797,188.858z M350.797,151.549
				c-7.529,0-13.655,6.125-13.655,13.655c0,7.529,6.126,13.654,13.655,13.654s13.654-6.125,13.654-13.654
				C364.451,157.674,358.326,151.549,350.797,151.549z"/></g><g><circle cx="85" cy="110" r="80" fill="#ffd766"/><path fill="#ffc533" d="M22,110c0-41.311,31.315-75.301,71.5-79.546C90.706,30.159,87.872,30,85,30
				C40.817,30,5,65.817,5,110c0,44.183,35.817,80,80,80c2.872,0,5.706-0.159,8.5-0.454C53.315,185.301,22,151.311,22,110z"/><path fill="#333" d="M127.282,140.657c-2.884,0-4.969-3.623-3.376-6.139C128.547,127.183,131,118.705,131,110
				c0-25.364-20.636-46-46-46c-2.209,0-4-1.791-4-4s1.791-4,4-4c29.775,0,54,24.224,54,54c0,10.221-2.882,20.178-8.334,28.795
				C129.905,139.999,128.608,140.657,127.282,140.657z"/><path fill="#333" d="M141.371,46.457l7.789-11.683c1.532-2.297,0.911-5.402-1.387-6.934
			c-2.298-1.532-5.403-0.911-6.934,1.387l-7.348,11.022C121.011,31.545,106.104,26.099,90,25.159V10h9.407c2.762,0,5-2.239,5-5
			s-2.238-5-5-5H70.593c-2.762,0-5,2.239-5,5s2.238,5,5,5H80v15.159c-16.104,0.939-31.011,6.386-43.492,15.089L29.16,29.227
			c-1.532-2.297-4.636-2.919-6.934-1.387c-2.298,1.532-2.919,4.636-1.387,6.934l7.789,11.683C11.084,62.039,0,84.744,0,110
			c0,46.869,38.131,85,85,85s85-38.131,85-85C170,84.744,158.916,62.039,141.371,46.457z M90,184.815v-8.204c0-2.761-2.238-5-5-5
			s-5,2.239-5,5v8.204C42.624,182.34,12.66,152.376,10.185,115h8.204c2.762,0,5-2.239,5-5s-2.238-5-5-5h-8.204
			C12.66,67.624,42.624,37.66,80,35.185v8.204c0,2.761,2.238,5,5,5s5-2.239,5-5v-8.204c37.376,2.474,67.34,32.439,69.815,69.815
			h-8.204c-2.762,0-5,2.239-5,5s2.238,5,5,5h8.204C157.34,152.376,127.376,182.34,90,184.815z"/><path fill="#333" d="M81.875 97.12h-7.161c3.709-3.656 6.64-7.122 6.64-11.392 0-3.847-2.49-7.729-8.054-7.729-2.986 0-5.788 1.248-7.918 3.291l2.259 5.005c1.233-1.325 3.209-2.756 5.073-2.756 1.806 0 2.612.781 2.612 2.529-.05 4.871-6.84 9.415-10.113 12.583v4.009h16.662V97.12zM95.799 103.019c5.677 0 8.933-4.643 8.933-12.737 0-7.69-3.206-12.281-8.575-12.281-5.426 0-8.933 4.939-8.933 12.59C87.296 98.256 90.582 103.019 95.799 103.019zM93.252 90.607c0-4.189 1.153-7.229 2.741-7.229 2.514 0 2.709 5.383 2.709 7.033 0 1.696-.198 7.229-2.741 7.229C94.341 97.641 93.252 94.814 93.252 90.607zM64.369 126.192c3.076 1.187 6.606 3.159 6.606 7.916 0 3.928-2.863 7.892-9.258 7.892-2.688 0-5.263-.776-7.448-2.314l1.648-5.469c1.679 1.196 4.013 2.274 5.995 2.274.903 0 3.002-.21 3.002-2.155 0-.952-.229-1.77-3.115-2.879-4.574-1.621-6.804-4.138-6.804-7.689 0-4.365 3.647-7.534 8.672-7.534 2.449 0 4.727.614 6.765 1.923l-1.803 5.334c-1.446-.92-3.411-1.749-5.059-1.749-1.878 0-2.547.879-2.547 1.701C61.024 124.295 61.264 124.991 64.369 126.192z"/><polygon fill="#333" points="82.296 131.399 90.816 131.399 90.816 125.892 82.296 125.892 82.296 122.132 91.304 122.132 91.304 116.591 76.3 116.591 76.3 141.675 91.792 141.675 91.792 136.134 82.296 136.134"/><path fill="#333" d="M112.542,135.709c-0.938,0.456-2.479,0.751-3.925,0.751c-4.41,0-6.838-2.567-6.838-7.229
					c0-4.738,2.54-7.456,6.969-7.456c1.908,0,3.781,0.591,5.411,1.565l1.583-5.349c-2.19-1.267-4.524-1.758-7.091-1.758
					c-7.672,0-13.03,5.385-13.03,13.095c0,7.698,4.872,12.672,12.412,12.672c2.716,0,5.265-0.506,7.644-1.781l-1.396-5.355
					L112.542,135.709z"/></g></svg>