<svg xmlns="http://www.w3.org/2000/svg" enable-background="new 0 0 468 468" viewBox="0 0 468 468"><rect width="45.986" height="144.915" x="49.058" y="70.458" fill="#e0e0e0"/><rect width="19.994" height="144.915" x="49.058" y="70.458" fill="#c9c9c9"/><rect width="45.986" height="144.915" x="49.058" y="70.458" fill="none" stroke="#333" stroke-linecap="round" stroke-linejoin="round" stroke-miterlimit="10" stroke-width="10"/><rect width="370" height="269.661" x="49" y="193.339" fill="#abe1f4" stroke="#333" stroke-linecap="round" stroke-linejoin="round" stroke-miterlimit="10" stroke-width="10"/><rect width="19.474" height="269.661" x="49" y="193.339" fill="#91d3e2"/><rect width="370" height="269.661" x="49" y="193.339" fill="none" stroke="#333" stroke-linecap="round" stroke-linejoin="round" stroke-miterlimit="10" stroke-width="10"/><polygon fill="#ec407a" stroke="#333" stroke-linecap="round" stroke-linejoin="round" stroke-miterlimit="10" stroke-width="10" points="234 5 25.065 193.339 442.935 193.339"/><line x1="15" x2="453" y1="193.339" y2="193.339" fill="#fff" stroke="#333" stroke-linecap="round" stroke-linejoin="round" stroke-miterlimit="10" stroke-width="10"/><polygon fill="#d63c77" stroke="#333" stroke-linecap="round" stroke-linejoin="round" stroke-miterlimit="10" stroke-width="10" points="260.284 28.693 74.05 193.339 124.034 193.339 285.034 51.003"/><polygon fill="#d63c77" stroke="#333" stroke-linecap="round" stroke-linejoin="round" stroke-miterlimit="10" stroke-width="10" points="309.783 73.313 174.019 193.339 224.003 193.339 334.533 95.623"/><polygon fill="#d63c77" stroke="#333" stroke-linecap="round" stroke-linejoin="round" stroke-miterlimit="10" stroke-width="10" points="408.781 162.552 373.957 193.339 442.935 193.339"/><polygon fill="#d63c77" stroke="#333" stroke-linecap="round" stroke-linejoin="round" stroke-miterlimit="10" stroke-width="10" points="359.282 117.932 273.988 193.339 323.972 193.339 384.032 140.242"/><rect width="148.489" height="129.415" x="237.449" y="225.026" fill="#29b6f6"/><path fill="#fff" d="M353.979 260.783c-.461-5.272-4.884-9.407-10.275-9.407-5.391 0-9.814 4.136-10.275 9.407-5.272.461-9.407 4.884-9.407 10.275 0 5.698 4.619 10.317 10.318 10.317h18.73c5.698 0 10.317-4.619 10.317-10.317C363.386 265.667 359.25 261.244 353.979 260.783zM286.979 307.783c-.461-5.272-4.884-9.407-10.275-9.407-5.391 0-9.814 4.136-10.275 9.407-5.272.461-9.407 4.884-9.407 10.275 0 5.698 4.619 10.317 10.318 10.317h18.73c5.698 0 10.317-4.619 10.317-10.317C296.386 312.667 292.25 308.244 286.979 307.783z"/><polygon fill="#00aae5" points="338.696 225.026 237.449 313.267 237.449 335.725 364.465 225.026"/><polygon fill="#00aae5" points="385.938 243.741 258.923 354.441 285.692 354.441 385.938 267.071"/><rect width="148.489" height="129.415" x="237.449" y="225.026" fill="none" stroke="#333" stroke-linecap="round" stroke-linejoin="round" stroke-miterlimit="10" stroke-width="10"/><g><path fill="#f7f7f7" d="M264.643,354.441h-27.194V225.026h27.194l0,0c12.18,15.047,14.442,35.824,5.784,53.139
				l-5.784,11.568l5.784,11.568C279.085,318.616,276.823,339.393,264.643,354.441L264.643,354.441z"/><path fill="#ededed" d="M270.427,301.301l-5.784-11.568l5.784-11.568c8.658-17.315,6.396-38.092-5.784-53.139h-15
				c12.18,15.047,14.442,35.824,5.784,53.139l-5.784,11.568l5.784,11.568c8.657,17.315,6.396,38.092-5.784,53.139l0,0h15l0,0
				C276.823,339.393,279.085,318.616,270.427,301.301z"/><path fill="none" stroke="#333" stroke-linecap="round" stroke-linejoin="round" stroke-miterlimit="10" stroke-width="10" d="
				M264.643,354.441h-27.194V225.026h27.194l0,0c12.18,15.047,14.442,35.824,5.784,53.139l-5.784,11.568l5.784,11.568
				C279.085,318.616,276.823,339.393,264.643,354.441L264.643,354.441z"/></g><g><path fill="#f7f7f7" d="M358.745,354.441h27.194V225.026h-27.194l0,0c-12.18,15.047-14.442,35.824-5.784,53.139
				l5.784,11.568l-5.784,11.568C344.303,318.616,346.564,339.393,358.745,354.441L358.745,354.441z"/><path fill="#ededed" d="M367.96,301.301l5.784-11.568l-5.784-11.568c-8.658-17.315-6.396-38.092,5.784-53.139h-15
				c-12.18,15.047-14.442,35.824-5.784,53.139l5.784,11.568l-5.784,11.568c-8.657,17.315-6.396,38.092,5.784,53.139l0,0h15l0,0
				C361.564,339.393,359.303,318.616,367.96,301.301z"/><path fill="none" stroke="#333" stroke-linecap="round" stroke-linejoin="round" stroke-miterlimit="10" stroke-width="10" d="
				M358.745,354.441h27.194V225.026h-27.194l0,0c-12.18,15.047-14.442,35.824-5.784,53.139l5.784,11.568l-5.784,11.568
				C344.303,318.616,346.564,339.393,358.745,354.441L358.745,354.441z"/></g><g><ellipse cx="162.232" cy="311.06" fill="#fbab68" rx="18.046" ry="18.456"/><path fill="#ea8e49" d="M162.232,292.604c7.052,0,13.154,4.139,16.123,10.169c-2.437-1.255-5.188-1.966-8.103-1.966
						c-9.967,0-18.046,8.263-18.046,18.456c0,2.981,0.695,5.795,1.923,8.287c-5.896-3.037-9.943-9.278-9.943-16.49
						C144.186,300.867,152.266,292.604,162.232,292.604z"/><ellipse cx="162.232" cy="311.06" fill="none" stroke="#333" stroke-linecap="round" stroke-linejoin="round" stroke-miterlimit="10" stroke-width="10" rx="18.046" ry="18.456"/><g><ellipse cx="232.051" cy="311.06" fill="#fbab68" rx="18.046" ry="18.456"/><path fill="#ea8e49" d="M232.051,292.604c-7.052,0-13.154,4.139-16.123,10.169c2.437-1.255,5.188-1.966,8.103-1.966
						c9.966,0,18.046,8.263,18.046,18.456c0,2.981-0.695,5.795-1.923,8.287c5.896-3.037,9.943-9.278,9.943-16.49
						C250.097,300.867,242.017,292.604,232.051,292.604z"/><ellipse cx="232.051" cy="311.06" fill="none" stroke="#333" stroke-linecap="round" stroke-linejoin="round" stroke-miterlimit="10" stroke-width="10" rx="18.046" ry="18.456"/></g><g><path fill="#9ccc65" d="M137.218,404.412h119.687v-32.62c0-33.188-26.793-60.092-59.844-60.092h0
						c-33.051,0-59.844,26.904-59.844,60.092V404.412z"/><path fill="#88ad57" d="M189.367,312.22c2.521-0.331,5.085-0.52,7.694-0.52l0,0c33.051,0,59.844,27.376,59.844,61.146
						v31.566h-15.388v-31.566C241.517,341.741,218.781,316.08,189.367,312.22z"/><path fill="none" stroke="#333" stroke-linecap="round" stroke-linejoin="round" stroke-miterlimit="10" stroke-width="10" d="
						M137.218,404.412h119.687v-32.62c0-33.188-26.793-60.092-59.844-60.092h0c-33.051,0-59.844,26.904-59.844,60.092V404.412z"/></g><g><path fill="#fdd2b5" d="M195.637,343.341h2.85c8.656,0,15.673-7.017,15.673-15.673v-41.316h-34.196v41.316
					C179.963,336.324,186.981,343.341,195.637,343.341z"/><path fill="#f9b995" d="M200.481,325.871v-39.519h13.679v39.519c0,9.649-7.655,17.47-17.098,17.47
					c-2.433,0-4.744-0.527-6.839-1.464C196.259,339.181,200.481,333.033,200.481,325.871z"/><path fill="none" stroke="#333" stroke-linecap="round" stroke-linejoin="round" stroke-miterlimit="10" stroke-width="10" d="
					M195.637,343.341h2.85c8.656,0,15.673-7.017,15.673-15.673v-41.316h-34.196v41.316
					C179.963,336.324,186.981,343.341,195.637,343.341z"/></g><g><ellipse cx="197.062" cy="264.943" fill="#fdd2b5" stroke="#333" stroke-linecap="round" stroke-linejoin="round" stroke-miterlimit="10" stroke-width="10" rx="45.816" ry="46.757"/><path fill="#fbab68" d="M197.062,218.186c-7.379,0-14.344,1.791-20.518,4.953l0,0
						c9.493,25.37,37.115,38.292,62.101,29.052l2.26-0.836C235.201,232.161,217.733,218.186,197.062,218.186z"/><path fill="#ea8e49" d="M186.476,219.45c-3.48,0.843-6.809,2.089-9.933,3.689v0
						c9.493,25.37,37.115,38.292,62.102,29.052l2.26-0.836c-0.407-1.369-0.88-2.708-1.403-4.021
						C217.896,251.457,195.922,240.149,186.476,219.45z"/><path fill="none" stroke="#333" stroke-linecap="round" stroke-linejoin="round" stroke-miterlimit="10" stroke-width="10" d="
						M197.062,218.186c-7.379,0-14.344,1.791-20.518,4.953l0,0c9.493,25.37,37.115,38.292,62.101,29.052l2.26-0.836
						C235.201,232.161,217.733,218.186,197.062,218.186z"/></g><line x1="312.062" x2="82.062" y1="437.814" y2="437.814" fill="none" stroke="#333" stroke-linecap="round" stroke-linejoin="round" stroke-miterlimit="10" stroke-width="10"/><g><path fill="#f7f7f7" d="M270.152,437.814H123.971v-86.842c0-5.523,4.477-10,10-10h126.182c5.523,0,10,4.477,10,10V437.814
				z"/><path fill="#ededed" d="M133.971,340.972c-5.523,0-10,4.477-10,10v86.842h18v-96.842H133.971z"/><path fill="none" stroke="#333" stroke-linecap="round" stroke-linejoin="round" stroke-miterlimit="10" stroke-width="10" d="
				M270.152,437.814H123.971v-86.842c0-5.523,4.477-10,10-10h126.182c5.523,0,10,4.477,10,10V437.814z"/><rect width="146.182" height="20.378" x="123.971" y="417.435" fill="#e0e0e0" stroke="#333" stroke-linecap="round" stroke-linejoin="round" stroke-miterlimit="10" stroke-width="10"/><ellipse cx="197.062" cy="380.32" fill="#ffd766" stroke="#333" stroke-linecap="round" stroke-linejoin="round" stroke-miterlimit="10" stroke-width="10" rx="14.182" ry="14.241"/></g></g></svg>