<svg xmlns="http://www.w3.org/2000/svg" enable-background="new 0 0 468 468" viewBox="0 0 468 468"><circle cx="273" cy="195" r="190" fill="#abe1f4"/><ellipse cx="273" cy="195" fill="#fdd2b5" rx="149.722" ry="149.345"/><path fill="#fbab68" d="M273,45.655c24.113,0,46.874,5.719,67.051,15.82l0,0
							c-31.023,81.035-121.29,122.308-202.943,92.793l-7.386-2.67C148.364,90.29,205.447,45.655,273,45.655z"/><path fill="#ea8e49" d="M327.43,55.879c-32.512,75.125-117.097,113.434-195.172,88.143
							c-0.909,2.496-1.759,5.021-2.536,7.577l7.386,2.67c81.653,29.515,171.921-11.759,202.943-92.793l0,0
							C335.949,59.422,331.735,57.56,327.43,55.879z"/><path fill="#333" d="M242.216,213.841c-1.409,0-2.81-0.592-3.798-1.746c-0.191-0.222-19.54-22.482-37.382-22.482
						c-17.805,0-35.075,20.146-35.248,20.35c-1.783,2.105-4.937,2.37-7.044,0.589s-2.376-4.931-0.597-7.04
						c0.823-0.976,20.414-23.898,42.889-23.898c22.45,0,44.064,24.914,44.974,25.975
						C248.698,208.722,246.498,213.841,242.216,213.841z"/><path fill="#fff" d="M232.711,233.124c0,0-14.181,21.069-31.675,21.069s-31.675-21.069-31.675-21.069
					s14.181-21.069,31.675-21.069S232.711,233.124,232.711,233.124z"/><path fill="#333" d="M308.23,213.841c-4.282,0-6.483-5.118-3.794-8.254c0.909-1.061,22.523-25.975,44.974-25.975
						c22.475,0,42.065,22.923,42.889,23.898c1.78,2.111,1.512,5.266-0.599,7.046c-2.113,1.779-5.265,1.511-7.045-0.598
						c-0.288-0.338-17.502-20.347-35.245-20.347c-14.856,0-32.021,16.229-37.382,22.482
						C311.039,213.248,309.638,213.841,308.23,213.841z"/><path fill="#fff" d="M317.734,233.124c0,0,14.181,21.069,31.675,21.069s31.675-21.069,31.675-21.069
					s-14.181-21.069-31.675-21.069S317.734,233.124,317.734,233.124z"/><path fill="#fdd2b5" d="M100.431,436.514L32.52,368.447l0,0c-0.879-28.143,7.038-55.896,22.646-79.38l25.747-38.741
					c3.786-5.532,12.18-4.615,14.64,1.599l0,0c5.476,13.837,5.487,29.265,0.032,43.157l-4.493,11.441l69.038-69.197
					c5.74-5.753,15.025-5.773,20.74-0.045l0,0c5.715,5.728,5.695,15.035-0.045,20.788l-57.567,57.7l0,0l77.088-77.265
					c5.302-5.314,13.879-5.332,19.157-0.041l0,0c5.279,5.291,5.26,13.888-0.041,19.201l-77.043,77.22l0,0l58.125-58.258
					c5.407-5.419,14.154-5.438,19.537-0.042l0,0c5.383,5.396,5.365,14.163-0.042,19.582l-58.125,58.258l0,0l35.772-35.854
					c5.642-5.655,14.77-5.675,20.388-0.044h0c5.618,5.631,5.598,14.78-0.044,20.435l-41.552,41.648l0,0
					c-18.763,24.528-43.899,43.415-72.634,54.578L100.431,436.514z"/><path fill="#f9b995" d="M49.576,368.447c-0.879-28.143,7.038-55.896,22.646-79.38l23.814-35.831
					c-0.161-0.437-0.311-0.876-0.483-1.31l0,0c-2.459-6.214-10.854-7.131-14.64-1.599l-25.747,38.74
					c-15.607,23.484-23.525,51.237-22.646,79.38l17.056,17.095V368.447z"/><polygon fill="#ec407a" points="5 394.468 73.376 463 100.116 436.198 31.74 367.666"/><polygon fill="#d63c77" points="31.74 367.666 5 394.468 16.371 405.864 43.111 379.062"/><ellipse cx="427.752" cy="397.692" fill="#ffd766" rx="23.199" ry="23.238"/><ellipse cx="425.909" cy="396.392" fill="#333" rx="6.381" ry="6.391"/><path fill="#333" d="M463,392.692h-7.5c-0.729-4.069-2.33-7.838-4.604-11.105l5.319-5.328
			c1.951-1.954,1.948-5.12-0.006-7.07c-1.954-1.952-5.122-1.949-7.07,0.006l-5.309,5.318c-3.26-2.274-7.018-3.875-11.077-4.605
			v-7.523c0-2.762-2.238-5-5-5s-5,2.238-5,5v7.523c-4.059,0.73-7.818,2.331-11.078,4.605l-5.309-5.318
			c-1.95-1.954-5.116-1.957-7.07-0.006c-1.954,1.95-1.957,5.116-0.006,7.07l5.319,5.328c-2.275,3.268-3.875,7.036-4.604,11.105h-7.5
			c-2.762,0-5,2.238-5,5s2.238,5,5,5h7.5c0.729,4.069,2.33,7.838,4.604,11.105l-5.319,5.328c-4.567,4.574,2.511,11.643,7.076,7.064
			l5.309-5.318c3.26,2.274,7.019,3.875,11.078,4.605V433c0,2.762,2.238,5,5,5s5-2.238,5-5v-7.523
			c4.058-0.73,7.817-2.331,11.077-4.605l5.309,5.318c4.567,4.577,11.643-2.491,7.076-7.064l-5.319-5.328
			c2.275-3.268,3.875-7.036,4.604-11.105h7.5c2.762,0,5-2.238,5-5S465.762,392.692,463,392.692z M427.752,415.931
			c-10.035,0-18.2-8.182-18.2-18.238s8.165-18.238,18.2-18.238s18.199,8.182,18.199,18.238S437.787,415.931,427.752,415.931z"/><circle cx="213.752" cy="433" r="19.745" fill="#ed4848"/><circle cx="212.183" cy="431.895" r="5.431" fill="#333"/><path fill="#333" d="M243.752,428h-5.764c-0.642-3.118-1.876-6.02-3.573-8.592l4.085-4.085
			c1.953-1.953,1.953-5.119,0.001-7.071c-1.953-1.953-5.118-1.952-7.071-0.001l-4.086,4.086c-2.571-1.697-5.474-2.932-8.591-3.574
			V403c0-2.762-2.238-5-5-5s-5,2.238-5,5v5.763c-3.118,0.643-6.021,1.877-8.592,3.574l-4.086-4.086
			c-1.953-1.951-5.118-1.952-7.071,0.001c-1.952,1.952-1.952,5.118,0.001,7.071l4.086,4.085c-1.697,2.572-2.931,5.474-3.574,8.592
			h-5.763c-2.762,0-5,2.238-5,5s2.238,5,5,5h5.763c0.642,3.118,1.876,6.02,3.574,8.592l-4.086,4.085
			c-4.572,4.572,2.497,11.641,7.07,7.072l4.086-4.086c2.572,1.697,5.475,2.932,8.592,3.574V463c0,2.762,2.238,5,5,5s5-2.238,5-5
			v-5.763c3.117-0.642,6.02-1.876,8.591-3.574l4.086,4.086c4.573,4.569,11.642-2.501,7.07-7.072l-4.085-4.085
			c1.697-2.572,2.931-5.474,3.573-8.592h5.764c2.762,0,5-2.238,5-5S246.514,428,243.752,428z M213.752,447.745
			c-8.131,0-14.745-6.614-14.745-14.745s6.614-14.745,14.745-14.745c8.13,0,14.744,6.614,14.744,14.745
			S221.882,447.745,213.752,447.745z"/><g><circle cx="35" cy="217.692" r="19.745" fill="#ed4848"/><circle cx="33.432" cy="216.587" r="5.431" fill="#333"/><path fill="#333" d="M65,212.692h-5.763c-0.642-3.118-1.877-6.021-3.574-8.593l4.085-4.085
			c1.953-1.952,1.953-5.118,0-7.07c-1.951-1.953-5.119-1.953-7.07,0l-4.085,4.085c-2.572-1.697-5.475-2.932-8.593-3.574v-5.763
			c0-2.762-2.238-5-5-5s-5,2.238-5,5v5.763c-3.118,0.643-6.021,1.877-8.593,3.574l-4.085-4.085c-1.951-1.953-5.119-1.953-7.07,0
			c-1.953,1.952-1.953,5.118,0,7.07l4.085,4.085c-1.698,2.572-2.932,5.475-3.574,8.593H5c-2.762,0-5,2.238-5,5s2.238,5,5,5h5.763
			c0.642,3.118,1.877,6.021,3.574,8.593l-4.085,4.085c-4.572,4.57,2.501,11.644,7.07,7.07l4.085-4.085
			c2.572,1.697,5.475,2.932,8.593,3.574v5.763c0,2.762,2.238,5,5,5s5-2.238,5-5v-5.763c3.118-0.643,6.021-1.877,8.593-3.574
			l4.085,4.085c4.569,4.573,11.643-2.5,7.07-7.07l-4.085-4.085c1.698-2.572,2.932-5.475,3.574-8.593H65c2.762,0,5-2.238,5-5
			S67.762,212.692,65,212.692z M35,232.438c-8.131,0-14.745-6.614-14.745-14.745S26.869,202.947,35,202.947
			s14.745,6.614,14.745,14.745S43.131,232.438,35,232.438z"/></g><g><ellipse cx="80.249" cy="40.308" fill="#ffd766" rx="23.199" ry="23.238"/><ellipse cx="78.406" cy="39.007" fill="#333" rx="6.381" ry="6.391"/><path fill="#333" d="M115.497,35.308h-7.5c-0.729-4.069-2.33-7.838-4.604-11.105l5.319-5.328
			c1.951-1.954,1.948-5.12-0.006-7.07c-1.954-1.952-5.122-1.949-7.07,0.006l-5.309,5.318c-3.26-2.274-7.019-3.875-11.078-4.605V5
			c0-2.762-2.238-5-5-5s-5,2.238-5,5v7.523c-4.058,0.73-7.817,2.331-11.077,4.605l-5.309-5.318c-1.95-1.954-5.116-1.957-7.07-0.006
			c-1.954,1.95-1.957,5.116-0.006,7.07l5.319,5.328c-2.275,3.268-3.875,7.036-4.604,11.105H45c-2.762,0-5,2.238-5,5s2.238,5,5,5h7.5
			c0.729,4.069,2.33,7.838,4.604,11.105l-5.319,5.328c-4.567,4.574,2.511,11.643,7.076,7.064l5.309-5.318
			c3.26,2.274,7.018,3.875,11.077,4.605v7.523c0,2.762,2.238,5,5,5s5-2.238,5-5v-7.523c4.059-0.73,7.818-2.331,11.078-4.605
			l5.309,5.318c4.567,4.577,11.643-2.491,7.076-7.064l-5.319-5.328c2.275-3.268,3.875-7.036,4.604-11.105h7.5c2.762,0,5-2.238,5-5
			S118.259,35.308,115.497,35.308z M80.248,58.546c-10.035,0-18.199-8.182-18.199-18.238s8.164-18.238,18.199-18.238
			s18.2,8.182,18.2,18.238S90.283,58.546,80.248,58.546z"/></g><path fill="#333" d="M273,0C165.477,0,78,87.477,78,195c0,16.339,2.031,32.211,5.835,47.386
		c-2.749,0.822-5.277,2.528-7.086,5.173L51.002,286.3c-15.584,23.448-23.667,50.536-23.524,78.559L1.46,390.937
		c-1.946,1.951-1.946,5.111,0,7.063l68.376,68.532c2.36,1.958,4.72,1.958,7.08,0l25.287-25.345
		c30.786-11.618,57.954-31.114,78.045-57.276l11.607-11.634C216.578,383.639,244.056,390,273,390c107.523,0,195-87.477,195-195
		S380.523,0,273,0z M138.763,67.833L160.3,89.37c-26.041,27.632-42.021,64.802-42.021,105.63c0,22.607,4.924,44.08,13.72,63.444
		l-22.653,22.706c-1.656-3.127-3.221-6.309-4.699-9.538c-0.221-7.306-1.696-14.582-4.444-21.526
		c-1.179-2.979-3.254-5.174-5.734-6.555C90.257,228.059,88,211.789,88,195C88,145.79,107.318,101.009,138.763,67.833z
		 M221.614,314.996c-2.363-2.37-5.233-4.051-8.368-4.941l10.334-10.357c7.34-7.357,7.358-19.311,0.041-26.645
		c-2.205-2.211-4.865-3.803-7.77-4.688l7.15-7.168c4.163-4.172,5.923-9.841,5.306-15.282c5.124-4.991,8.268-9.579,8.55-9.998
		c1.137-1.688,1.137-3.896,0-5.584c-0.64-0.95-15.896-23.277-35.822-23.277c-16.83,0-30.327,15.925-34.502,21.448
		c-3.671,0.741-7.159,2.502-9.943,5.293l-17.02,17.059c-7.262-17.19-11.293-36.06-11.293-55.854c0-12.741,1.672-25.098,4.795-36.872
		c32.43,11.864,67.542,14.074,100.985,5.001L371.54,300.61c-25.856,24.017-60.505,38.734-98.54,38.734
		c-16.079,0-31.547-2.642-46.008-7.492C227.961,325.892,226.182,319.573,221.614,314.996z M190.982,240.812l-1.557,1.561
		c-1.529-5.549-5.637-10.319-10.919-12.616c4.498-4.832,11.038-10.325,18.041-12.102
		C189.425,222.25,188.465,233.563,190.982,240.812z M223.995,235.988c-3.016-3.523-7.266-5.733-11.876-6.255
		c-0.753-5.493-3.303-10-6.692-12.13c9.301,2.254,17.35,10.971,21.022,15.521C225.776,233.958,224.943,234.939,223.995,235.988z
		 M344.98,248.635c-9.285-2.269-17.317-10.967-20.984-15.511c3.667-4.544,11.699-13.244,20.984-15.512
		c-4.046,2.568-6.883,8.545-6.883,15.512S340.934,246.067,344.98,248.635z M343.642,258.571c1.871,0.395,3.795,0.621,5.767,0.621
		c19.927,0,35.184-22.326,35.823-23.276c1.137-1.688,1.137-3.896,0-5.584c-0.64-0.95-15.896-23.277-35.823-23.277
		c-17.708,0-31.719,17.623-35.07,22.214l-69.481-69.481c43.822-15.177,79.71-48.554,97.747-91.307
		c44.736,24.582,75.116,72.076,75.116,126.519c0,38.071-14.861,72.741-39.093,98.559L343.642,258.571z M353.839,217.612
		c9.286,2.27,17.32,10.971,20.984,15.512c-3.667,4.544-11.699,13.242-20.984,15.511c4.046-2.568,6.883-8.545,6.883-15.512
		S357.885,220.18,353.839,217.612z M236.706,151.636L174.46,89.39c40.986-38.069,101.956-49.195,153.719-27.822
		c1.847,0.762,3.675,1.564,5.489,2.401C315.551,107.339,279.109,138.445,236.706,151.636z M225.579,154.649
		c-29.982,6.952-60.786,4.398-89.599-6.104c6.698-19.591,17.501-37.304,31.391-52.104L225.579,154.649z M73.376,455.921
		l-61.313-61.453l19.678-19.723l61.312,61.454L73.376,455.921z M172.939,377.079c-0.154,0.154-0.298,0.319-0.432,0.493
		c-18.213,23.81-42.582,42.12-70.474,52.955l-0.369,0.143l-64.193-64.34c-0.439-26.57,7.1-52.288,21.858-74.495l25.709-38.684
		c1.497-2.188,4.876-1.882,5.864,0.614c7.105,17.954,2.15,34.083-4.466,50.931c-0.865,2.206-0.065,4.716,1.917,6.013
		c1.983,1.296,4.604,1.022,6.277-0.653l69.038-69.197c3.691-3.697,9.957-3.755,13.661-0.043c3.764,3.771,3.743,9.927-0.045,13.724
		l-57.567,57.7c-1.95,1.955-1.946,5.12,0.009,7.071c1.954,1.95,5.119,1.947,7.071-0.009l77.087-77.266
		c3.29-3.296,8.777-3.349,12.079-0.041c3.327,3.336,3.309,8.78-0.042,12.139l-77.043,77.22c-1.95,1.955-1.946,5.12,0.009,7.071
		c1.954,1.95,5.119,1.947,7.071-0.009l58.125-58.258c3.392-3.399,9.052-3.456,12.457-0.043c3.433,3.44,3.413,9.057-0.042,12.52
		l-58.125,58.259c-1.95,1.955-1.946,5.12,0.009,7.071c1.954,1.95,5.119,1.947,7.071-0.009l35.771-35.854
		c3.626-3.632,9.672-3.689,13.311-0.044c3.666,3.675,3.646,9.673-0.045,13.372L172.939,377.079z M273,380
		c-26.143,0-51.028-5.465-73.596-15.29l22.166-22.217c0.471-0.472,0.913-0.963,1.326-1.47c15.722,5.385,32.574,8.321,50.104,8.321
		c40.792,0,77.941-15.837,105.612-41.663l21.555,21.555C366.991,360.683,322.211,380,273,380z M407.237,322.167l-21.537-21.537
		c26.041-27.632,42.021-64.802,42.021-105.63c0-85.105-69.408-154.345-154.722-154.345c-40.792,0-77.941,15.837-105.612,41.663
		l-21.555-21.555C179.009,29.317,223.79,10,273,10c102.01,0,185,82.99,185,185C458,244.21,438.682,288.991,407.237,322.167z"/></svg>