<svg xmlns="http://www.w3.org/2000/svg" enable-background="new 0 0 468.002 468.002" viewBox="0 0 468.002 468.002"><circle cx="234" cy="234.001" r="195" fill="#29b6f6"/><path fill="#00aae5" d="M59.526,234.001c0-104.253,81.812-189.394,184.737-194.732c-3.399-0.176-6.82-0.268-10.263-0.268
					c-107.696,0-195,87.304-195,195s87.304,195,195,195c3.443,0,6.864-0.092,10.263-0.268
					C141.339,423.396,59.526,338.254,59.526,234.001z"/><path fill="#9ccc65" d="M409.988 149.925l-.154-.09c-15.367-19.045-37.112-34.837-67.8-28.212-31.286 6.754-58.265 62.761-44.232 86.192 20.284 33.869 62.311 7.863 63.533 59.755.651 27.654-21.562 74.103 13.55 88.823l8.106 3.398c28.699-33.957 46.01-77.849 46.01-125.79C429 203.894 422.172 175.383 409.988 149.925zM77.871 147.679c6.148 34.251 31.88 54.518 46.115 70.8-6.252 8.704-11.652 16.266-11.725 27.384-.197 29.739 25.556 47.796 24.139 80.411-.516 11.87 1.749 25.283 12.698 32.051 8.789 5.433 1.079 32.866 28.566 31.524 2.711-.132 4.807-2.442 4.721-5.155-.34-9.81-3.341-35.194.953-43.382 6.666-12.71 15.761-3.64 23.071-11.463 4.649-4.976 6.334-16.461 10.445-20.976 4.696-5.157 21.334-12.782 27.372-24.175 6.196-11.691-1.56-38.176-16.759-46.071-13.133-6.822-25.103-15.639-36.363-25.244-13.116-11.189-27.427-18.578-49.999-14.902-2.354.383-4.547-1.535-4.242-3.901 1.434-11.14-13.824-17.585-17.072-28.252-3.751-12.316 6.355-21.512 16.461-21.233 13.999.386 27.192-6.346 34.079-18.542 9.991-17.694 18.533-39.04 23.361-50.042 5.891-13.425 38.333-13.206 21.723-36.623-57.252 5.414-107.289 35.578-139.308 79.681C74.91 128.255 76.073 137.663 77.871 147.679z"/><path fill="#88ad57" d="M162.782,349.203c-10.948-6.768-13.214-20.182-12.698-32.051
					c1.417-32.615-24.336-50.672-24.139-80.411c0.053-7.984,2.852-14.134,6.742-20.191c2.848-4.434,2.295-10.236-1.347-14.044
					c-14.507-15.17-34.467-34.331-39.784-63.949c-1.798-10.016-2.961-19.424-1.765-28.11c12-16.529,26.531-31.099,43.024-43.143
					c-22.197,13.503-41.491,31.306-56.708,52.266c-1.196,8.686-0.033,18.094,1.765,28.11c6.148,34.251,31.88,54.518,46.115,70.8
					c-6.252,8.704-11.652,16.266-11.725,27.384c-0.197,29.739,25.556,47.796,24.139,80.411c-0.516,11.87,1.749,25.283,12.698,32.051
					c8.789,5.433,1.079,32.866,28.566,31.524c2.711-0.133,4.807-2.442,4.721-5.155c-0.047-1.351-0.145-3.004-0.267-4.86
					C165.641,375.126,170.398,353.911,162.782,349.203z"/><circle cx="85" cy="383.001" r="80" fill="#ed4848"/><path fill="#cc4040" d="M26.333,383.001c0-40.564,30.197-74.053,69.333-79.271c-3.492-0.466-7.048-0.729-10.667-0.729
				c-44.183,0-80,35.817-80,80s35.817,80,80,80c3.619,0,7.175-0.264,10.667-0.729C56.53,457.054,26.333,423.565,26.333,383.001z"/><polygon fill="#ffd766" points="430.374 220.218 361.606 128.037 406.457 83.427 443.475 199.525"/><polygon fill="#ffc533" points="372.632 117.071 361.606 128.037 430.374 220.218 439.19 206.292"/><polygon fill="#ffd766" points="249.216 40.073 341.896 108.47 386.747 63.86 270.022 27.042"/><polygon fill="#ffc533" points="352.896 97.47 263.229 31.297 249.216 40.073 341.896 108.47"/><path fill="#f7f7f7" d="M311.582,202.278L445.319,68.606c12.649-12.581,19.037-30.089,17.439-47.793l0,0
					c-0.809-8.964-8.362-15.823-17.413-15.811l0,0c-15.144,0.02-29.67,6.016-40.39,16.671L268.219,158.915l-47.454-2.317
					c-10.268-0.501-14.519,12.955-5.827,18.444l49.317,31.14l31.075,49.272c5.478,8.686,18.923,4.461,18.448-5.798L311.582,202.278z
					"/><path fill="#ededed" d="M228.766,171.598l47.454,2.317L412.956,36.673c10.72-10.656,25.246-16.651,40.39-16.671
					c3.508-0.005,6.785,1.033,9.537,2.815c-0.038-0.668-0.064-1.335-0.125-2.004l0,0c-0.809-8.964-8.362-15.823-17.413-15.811
					c-15.144,0.02-29.67,6.016-40.39,16.671L268.219,158.915l-47.454-2.317c-10.267-0.501-14.519,12.955-5.827,18.444l4.146,2.618
					C220.582,174.105,224.032,171.367,228.766,171.598z"/><path fill="#333" d="M456.498,179.601l-10.726,10.669l-8.867-27.809l16.539-16.45c1.958-1.947,1.966-5.113,0.019-7.071
			c-1.948-1.958-5.113-1.966-7.071-0.019l-12.902,12.832l-15.536-48.727l30.891-30.876c13.744-13.669,20.63-32.546,18.893-51.788
			C466.69,8.75,457.077,0.001,445.37,0.001c-0.01,0-0.021,0-0.031,0c-16.578,0.022-32.172,6.459-43.925,18.143L367.224,52.46
			l-48.54-15.311l12.636-12.568c1.958-1.947,1.966-5.113,0.019-7.071c-1.948-1.958-5.113-1.966-7.071-0.019l-16.35,16.262
			l-27.959-8.819L290.42,14.53c1.958-1.947,1.966-5.113,0.019-7.071s-5.114-1.966-7.071-0.019l-14.952,14.871
			c-0.364,0.123-0.717,0.286-1.048,0.494L248.6,34.56c-4.823-0.354-9.688-0.558-14.6-0.558c-110.28,0-200,89.72-200,200
			c0,25.62,4.849,50.126,13.667,72.659C19.465,320.508,0,349.52,0,383.001c0,46.869,38.131,85,85,85
			c33.482,0,62.494-19.465,76.342-47.668c22.532,8.818,47.038,13.668,72.658,13.668c110.28,0,200-89.72,200-200
			c0-3.091-1.095-8.435,0.598-11.108l12.681-20.03c0.02-0.019,0.044-0.032,0.063-0.052l16.208-16.121
			c1.958-1.947,1.966-5.113,0.019-7.071C461.621,177.662,458.455,177.654,456.498,179.601z M408.48,25.219
			c9.854-9.794,22.948-15.199,36.872-15.217c0.006,0,0.011,0,0.017,0c6.496,0,11.83,4.838,12.409,11.261
			c1.469,16.27-4.357,32.234-15.994,43.807L308.048,198.741c-0.995,0.995-1.525,2.363-1.46,3.768l2.196,47.377
			c0.232,4.996-6.497,7.222-9.224,2.899l-29.069-46.09l48.555-48.556c1.953-1.953,1.953-5.119,0-7.071
			c-1.953-1.952-5.118-1.952-7.071,0l-48.627,48.627l-45.74-28.882c-4.319-2.727-2.14-9.474,2.914-9.222l47.454,2.317
			c1.421,0.068,2.788-0.464,3.786-1.465L408.48,25.219z M270.719,32.505l88.556,27.933l-31.374,31.49l-69.806-51.517L270.719,32.505
			z M44,234.001c0-35.725,9.917-69.174,27.134-97.751c3.685,35.415,23.357,57.584,46.451,82.593
			c-15.778,22.438-9.627,44.046,1.99,66.923c4.194,8.26,8.219,16.231,10.332,25.113c-13.041-8.149-28.428-12.878-44.906-12.878
			c-9.848,0-19.301,1.702-28.105,4.796C48.575,281.454,44,258.253,44,234.001z M10,383.001c0-18.882,7.029-36.142,18.588-49.341
			l105.753,105.753c-13.199,11.559-30.459,18.588-49.341,18.588C43.645,458.001,10,424.356,10,383.001z M141.412,432.342
			L35.659,326.589C48.858,315.03,66.118,308.001,85,308.001c41.355,0,75,33.645,75,75C160,401.883,152.971,419.144,141.412,432.342z
			 M141.308,319.403c-0.985-14.84-6.982-26.675-12.817-38.165c-11.251-22.158-15.528-38.843-0.444-59.843
			c1.355-1.887,1.232-4.459-0.297-6.208c-24.091-27.554-51.12-53.124-46.854-93.562c30.683-41.691,77.956-70.446,132-76.446
			c5.041,8.541-1.542,12.184-8.555,16.072c-9.816,5.443-14.004,10.327-18.366,20.545c-5.077,11.896-12.03,28.188-19.999,42.298
			c-5.768,10.214-17.101,16.337-29.587,16.003c-14.617-0.426-25.637,13.714-21.381,27.688c2.671,8.772,18.078,16.981,16.896,26.158
			c-0.726,5.641,4.463,10.373,10.005,9.474c21.995-3.583,35.085,4.501,45.95,13.771c18.276,15.589,51.324,25.946,53.773,53.178
			c1.238,13.762-9.229,21.149-19.524,28.193c-7.61,5.207-11.507,9.636-14.799,18.456c-2.382,6.383-3.978,11.239-11.421,11.648
			c-4.74,0.261-11.903,0.655-16.976,10.328c-6.694,12.761-2.195,32.264-1.49,45.865c-3.004,0.144-5.438-0.08-7.446-0.628
			C170.329,359.634,159.712,335.716,141.308,319.403z M234,424.001c-24.252,0-47.453-4.575-68.796-12.895
			c1.891-5.381,3.255-11.007,4.035-16.815c1.962,0.388,4.125,0.606,6.53,0.606c6.033,0,11.827-3.615,11.612-10.375
			c-0.402-11.588-5.247-30.15,0.384-40.886c2.437-4.645,4.52-4.759,8.67-4.987c11.736-0.646,16.44-7.956,20.241-18.137
			c2.542-6.811,5.061-9.583,11.077-13.699c13.573-9.286,25.437-19.536,23.732-37.368c-3.051-31.914-35.799-41.662-57.137-59.864
			c-11.83-10.092-27.285-19.856-52.389-16.286c0.183-12.878-14.046-17.447-17.387-28.421c-2.299-7.549,3.611-15.01,11.54-14.778
			c16.221,0.45,30.976-7.632,38.57-21.082c8.241-14.592,15.319-31.179,20.488-43.29c3.431-8.041,6.204-11.392,14.018-15.725
			c9.955-5.519,19.411-13.232,14.391-25.707c7.703-0.418,15.428-0.37,23.125,0.143l74.06,54.656l-54.521,54.722l-45.235-2.208
			c-14.913-0.719-21.576,19.561-8.74,27.665l43.83,27.676l-18.137,18.137c-4.572,4.572,2.499,11.641,7.071,7.071l18.208-18.208
			l27.861,44.175c8.023,12.723,28.365,6.287,27.671-8.697l-0.886-19.112c3.824,1.459,7.66,2.559,11.347,3.614
			c15.375,4.4,26.484,7.579,27.101,33.761c0.167,7.109-1.325,15.812-2.905,25.025c-4.376,25.521-8.45,57.584,21.151,68.975
			C339.801,399.947,289.657,424.001,234,424.001z M381.426,353.714c-26.472-10.621-22.248-35.351-18.139-59.311
			c1.664-9.705,3.236-18.872,3.046-26.951c-0.79-33.536-18.618-38.638-34.347-43.14c-5.073-1.452-10.015-2.883-14.613-5.111
			l-0.693-14.948l54.734-54.708l52.001,69.706C427.152,267.562,412.008,316.123,381.426,353.714z M430.036,211.404l-51.476-69.002
			l31.435-31.42l28.007,87.839L430.036,211.404z"/><path fill="#333" d="M403.07 84.076c-1.275 0-2.55-.485-3.526-1.455l-11.74-11.676c-1.958-1.947-1.966-5.113-.019-7.071 1.947-1.958 5.113-1.966 7.071-.019l11.74 11.676C409.576 78.495 407.276 84.076 403.07 84.076zM422.876 64.269c-1.275 0-2.55-.484-3.526-1.455l-11.739-11.676c-1.958-1.947-1.966-5.113-.019-7.071 1.948-1.958 5.113-1.967 7.071-.019l11.739 11.676C429.382 58.688 427.082 64.269 422.876 64.269zM382.811 104.226c-1.275 0-2.55-.484-3.526-1.455l-11.739-11.676c-1.958-1.947-1.966-5.113-.019-7.071 1.948-1.958 5.113-1.967 7.071-.019l11.739 11.676C389.317 98.645 387.016 104.226 382.811 104.226zM362.956 123.974c-1.275 0-2.55-.484-3.526-1.455l-11.739-11.676c-1.958-1.947-1.966-5.113-.019-7.071 1.948-1.958 5.113-1.967 7.071-.019l11.739 11.676C369.462 118.393 367.162 123.974 362.956 123.974zM343.102 143.722c-1.275 0-2.55-.485-3.526-1.455l-11.74-11.676c-1.958-1.947-1.966-5.113-.019-7.071 1.948-1.958 5.113-1.966 7.071-.019l11.74 11.676C349.608 138.141 347.308 143.722 343.102 143.722z"/></svg>