<svg xmlns="http://www.w3.org/2000/svg" enable-background="new 0 0 468 468" viewBox="0 0 468 468"><path fill="#ffd766" d="M73.403,160.902v-19.086H41.55v-35.06h0c14.441,0,28.445-4.996,39.671-14.153l1.052-0.858h105.57
					v35.571h-36.953l-15.001,33.585H73.403z"/><path fill="#ffc533" d="M87.403,147.901v-15.086c0-2.209-1.791-4-4-4H55.55v-23.657c-4.565,1.048-9.258,1.597-14,1.597
						v35.06h31.853v19.086h62.486l5.807-13H87.403z"/><rect width="23.675" height="20.016" x="187.843" y="100.071" fill="#e0e0e0"/><rect width="62.325" height="56.42" x="73.403" y="160.902" fill="#e0e0e0"/><rect width="20" height="56.42" x="73.403" y="160.901" fill="#c9c9c9"/><path fill="#29b6f6" d="M166.452,463H44.995c-25.727,0-44.764-23.936-38.974-49.002l37.938-164.241
				c6.642-28.756,32.251-49.124,61.765-49.124h0c29.513,0,55.122,20.368,61.765,49.124l37.938,164.241
				C211.216,439.064,192.179,463,166.452,463z"/><path fill="#00aae5" d="M26.021,413.998l37.938-164.241c5.879-25.449,26.616-44.316,51.765-48.322
				c-3.268-0.521-6.606-0.802-10-0.802h0c-29.513,0-55.122,20.368-61.765,49.124L6.021,413.998C0.231,439.064,19.268,463,44.995,463
				h20C39.268,463,20.231,439.064,26.021,413.998z"/><path fill="#333" d="M260.463 114.531h-24.636c-2.762 0-5-2.238-5-5s2.238-5 5-5h24.636c2.762 0 5 2.238 5 5S263.225 114.531 260.463 114.531zM233.929 95.56c-4.187 0-6.5-5.546-3.55-8.521l17.42-17.56c1.945-1.961 5.11-1.972 7.071-.028 1.96 1.945 1.973 5.11.028 7.071l-17.42 17.56C236.501 95.066 235.215 95.56 233.929 95.56zM251.349 151.063c-1.286 0-2.572-.493-3.55-1.479l-17.42-17.561c-1.944-1.961-1.932-5.126.028-7.071 1.961-1.944 5.126-1.933 7.071.028l17.42 17.561C257.849 145.516 255.535 151.063 251.349 151.063z"/><path fill="#99695c" d="M337.876,235L337.876,235c-28.456,0-51.525-23.068-51.525-51.525V56.525
				C286.352,28.068,309.42,5,337.876,5h0c28.456,0,51.525,23.068,51.525,51.525v126.951C389.401,211.932,366.333,235,337.876,235z"/><path fill="#895b52" d="M304.352,183.476V56.524c0-25.384,18.362-46.466,42.525-50.725c-2.924-0.516-5.928-0.8-9-0.8l0,0
				c-28.456,0-51.525,23.068-51.525,51.524v126.951c0,28.456,23.068,51.524,51.525,51.524l0,0c3.072,0,6.076-0.284,9-0.8
				C322.713,229.941,304.352,208.86,304.352,183.476z"/><path fill="#333" d="M347.876,141.229c0-5.522-4.477-10-10-10s-10,4.478-10,10c0,3.699,2.014,6.922,5,8.651v18.654
			c0,2.762,2.238,5,5,5s5-2.238,5-5V149.88C345.862,148.15,347.876,144.928,347.876,141.229z"/><path fill="#895b52" d="M448.478,100.466H344.376c-8.008,0-14.5-6.492-14.5-14.5v0c0-8.008,6.492-14.5,14.5-14.5h104.102
				c8.008,0,14.5,6.492,14.5,14.5v0C462.978,93.974,456.486,100.466,448.478,100.466z"/><path fill="#333" d="M448.478 66.466h-54.077v-9.941C394.401 25.356 369.044 0 337.876 0s-56.524 25.356-56.524 56.524v126.951c0 31.168 25.356 56.524 56.524 56.524s56.524-25.356 56.524-56.524v-78.01h54.077c10.752 0 19.5-8.748 19.5-19.5S459.23 66.466 448.478 66.466zM384.401 183.476c0 25.653-20.871 46.524-46.524 46.524s-46.524-20.871-46.524-46.524V56.524c0-25.653 20.871-46.524 46.524-46.524s46.524 20.871 46.524 46.524v9.941h-40.024c-10.752 0-19.5 8.748-19.5 19.5s8.748 19.5 19.5 19.5h40.024V183.476zM448.478 95.466H344.376c-5.238 0-9.5-4.262-9.5-9.5s4.262-9.5 9.5-9.5h104.102c5.238 0 9.5 4.262 9.5 9.5S453.716 95.466 448.478 95.466zM221.452 246.246h-7v-6.771c0-2.762-2.238-5-5-5s-5 2.238-5 5v6.771h-7c-2.762 0-5 2.238-5 5s2.238 5 5 5h7v7.229c0 2.762 2.238 5 5 5s5-2.238 5-5v-7.229h7c2.762 0 5-2.238 5-5S224.214 246.246 221.452 246.246zM291.452 246.246h-7v-6.771c0-2.762-2.238-5-5-5s-5 2.238-5 5v6.771h-7c-2.762 0-5 2.238-5 5s2.238 5 5 5h7v7.229c0 2.762 2.238 5 5 5s5-2.238 5-5v-7.229h7c2.762 0 5-2.238 5-5S294.214 246.246 291.452 246.246zM261.452 306.246h-7v-6.771c0-2.762-2.238-5-5-5s-5 2.238-5 5v6.771h-7c-2.762 0-5 2.238-5 5s2.238 5 5 5h7v7.229c0 2.762 2.238 5 5 5s5-2.238 5-5v-7.229h7c2.762 0 5-2.238 5-5S264.214 306.246 261.452 306.246z"/><path fill="#333" d="M211.518,95.07h-18.675v-3.325c0-2.762-2.238-5-5-5H82.273c-1.152,0-2.269,0.397-3.161,1.126
		l-1.051,0.857c-10.299,8.401-23.266,13.027-36.511,13.027c-2.762,0-5,2.238-5,5v35.06c0,2.762,2.238,5,5,5h26.853v59.813
		c-14.439,9.373-25.189,24.141-29.315,42.003L1.15,412.872C-5.266,440.647,16.546,468,44.995,468h121.457
		c28.451,0,50.261-27.353,43.846-55.128l-37.938-164.24c-4.344-18.806-16.028-34.183-31.633-43.442v-42.861l13.405-30.012h9.04
		c-2.731,11.044-1.28,22.705,4.259,32.898c6.717,12.362,18.515,20.862,32.367,23.318c0.295,0.053,0.589,0.078,0.879,0.078
		c2.379,0,4.487-1.704,4.917-4.128c0.482-2.719-1.331-5.314-4.05-5.796c-10.84-1.923-20.071-8.573-25.327-18.246
		c-4.734-8.714-5.641-18.797-2.645-28.125h14.27c2.762,0,5-2.238,5-5v-2.23h18.675c2.762,0,5-2.238,5-5V100.07
		C216.518,97.309,214.28,95.07,211.518,95.07z M162.617,250.882l37.938,164.24C205.559,436.788,188.618,458,166.452,458H44.995
		c-22.166,0-39.106-21.212-34.102-42.878l37.938-164.24c6.153-26.642,29.549-45.249,56.893-45.249S156.463,224.24,162.617,250.882z
		 M78.403,201.269v-35.368h52.325v34.412C114.008,193.798,94.87,194.143,78.403,201.269z M182.843,122.316H150.89
		c-1.973,0-3.761,1.16-4.565,2.961l-13.679,30.624H78.403v-14.086c0-2.762-2.238-5-5-5H46.55v-25.247
		c13.638-1.021,26.781-6.19,37.502-14.823h98.791V122.316z M206.518,115.086h-13.675V105.07h13.675V115.086z"/></svg>