<svg xmlns="http://www.w3.org/2000/svg" enable-background="new 0 0 468 468" viewBox="0 0 468 468"><path fill="#9ccc65" d="M323.043,363H463v-81.09c0-38.648-31.33-69.978-69.978-69.978h0
						c-38.648,0-69.978,31.33-69.978,69.978V363z"/><path fill="#88ad57" d="M384.024,212.527c2.948-0.378,5.946-0.595,8.997-0.595l0,0c38.648,0,69.978,31.304,69.978,69.92
						V363h-17.994v-81.149C445.006,246.284,418.42,216.941,384.024,212.527z"/><rect width="31.581" height="65.535" x="431.419" y="297.465" fill="#fdd2b5"/><rect width="16.995" height="65.535" x="446.005" y="297.465" fill="#f9b995"/><rect width="31.581" height="65.535" x="323.043" y="297.465" fill="#fdd2b5"/><rect width="16.995" height="65.535" x="337.63" y="297.465" fill="#f9b995"/><path fill="#fdd2b5" d="M393.022,248.113L393.022,248.113c11.042,0,19.994-8.952,19.994-19.994v-45.173h-39.988v45.173
					C373.028,239.162,381.979,248.113,393.022,248.113z"/><path fill="#f9b995" d="M397.02,228.136v-45.189h15.995v45.189c0,11.033-8.952,19.977-19.994,19.977
					c-2.846,0-5.547-0.603-7.998-1.674C392.083,243.356,397.02,236.326,397.02,228.136z"/><circle cx="352.789" cy="211.2" r="21.102" fill="#fbab68"/><path fill="#ea8e49" d="M352.789,190.095c8.246,0,15.382,4.733,18.854,11.628c-2.85-1.435-6.067-2.249-9.475-2.249
					c-11.654,0-21.102,9.449-21.102,21.105c0,3.409,0.813,6.626,2.248,9.476c-6.894-3.472-11.627-10.609-11.627-18.856
					C331.687,199.544,341.134,190.095,352.789,190.095z"/><ellipse cx="393.022" cy="158.466" fill="#fdd2b5" rx="53.575" ry="53.466"/><path fill="#fbab68" d="M393.022,105c-8.628,0-16.773,2.048-23.993,5.664l0,0c11.101,29.011,43.401,43.787,72.618,33.22
						l2.643-0.956C437.62,120.979,417.194,105,393.022,105z"/><path fill="#ea8e49" d="M380.644,106.445c-4.07,0.964-7.962,2.389-11.615,4.219v0
						c11.101,29.011,43.401,43.787,72.619,33.22l2.643-0.956c-0.476-1.565-1.029-3.096-1.641-4.597
						C417.384,143.044,391.689,130.114,380.644,106.445z"/><path fill="#ffd766" d="M144.957,363H5v-81.09c0-38.648,31.33-69.978,69.978-69.978h0
						c38.648,0,69.978,31.33,69.978,69.978V363z"/><path fill="#ffc533" d="M83.976,212.527c-2.948-0.378-5.946-0.595-8.997-0.595l0,0C36.33,211.932,5,243.236,5,281.851
						V363h17.994v-81.149C22.994,246.284,49.58,216.941,83.976,212.527z"/><rect width="31.581" height="65.535" x="5" y="297.465" fill="#fdd2b5"/><rect width="16.995" height="65.535" x="5" y="297.465" fill="#f9b995"/><g><rect width="31.581" height="65.535" x="113.375" y="297.465" fill="#fdd2b5"/><rect width="16.995" height="65.535" x="113.375" y="297.465" fill="#f9b995"/></g><g><path fill="#fdd2b5" d="M74.978,248.113L74.978,248.113c-11.042,0-19.994-8.952-19.994-19.994v-45.173h39.988v45.173
					C94.972,239.162,86.021,248.113,74.978,248.113z"/><path fill="#f9b995" d="M70.98,228.136v-45.189H54.985v45.189c0,11.033,8.952,19.977,19.994,19.977
					c2.846,0,5.547-0.603,7.998-1.674C75.917,243.356,70.98,236.326,70.98,228.136z"/></g><g><ellipse cx="74.978" cy="158.466" fill="#fdd2b5" rx="53.575" ry="53.466"/><path fill="#fbab68" d="M118.146,148.154h9.401C122.731,123.561,101.031,105,74.978,105
						C74.978,128.833,94.305,148.154,118.146,148.154z"/><path fill="#ea8e49" d="M74.978,105c0,0.623,0.021,1.241,0.047,1.858c19.434,5.256,34.475,21.157,38.471,41.043
						c1.528,0.164,3.078,0.253,4.65,0.253h9.401C122.731,123.561,101.031,105,74.978,105z"/><path fill="#fbab68" d="M74.978,105c-26.052,0-47.752,18.561-52.569,43.154h9.401
						C55.651,148.154,74.978,128.833,74.978,105z"/><path fill="#ea8e49" d="M74.904,107.453c0.046-0.812,0.074-1.629,0.074-2.453c-26.052,0-47.752,18.561-52.569,43.154
						h9.401c2.282,0,4.522-0.18,6.708-0.521C42.452,128.568,56.543,113.21,74.904,107.453z"/></g><g><path fill="#333" d="M306.252,258.466l-18.067-15.193c-2.114-1.776-5.268-1.504-7.045,0.609s-1.505,5.268,0.608,7.045
			l7.57,6.366H178.682l7.57-6.366c2.113-1.777,2.386-4.932,0.608-7.045c-1.778-2.116-4.933-2.387-7.045-0.609l-18.067,15.193
			c-2.379,2.002-2.333,5.793,0.097,7.733l18.067,14.435c5.016,4.007,11.269-3.796,6.242-7.813l-6.92-5.528h109.53l-6.92,5.528
			c-4.836,3.864,1.03,11.978,6.242,7.813l18.067-14.435C308.585,264.258,308.631,260.468,306.252,258.466z"/><polygon fill="#333" points="196.654 191.621 198.703 199.684 204.458 196.582 204.458 227.243 213.542 227.243 213.542 186.29 206.751 186.29"/><path fill="#333" d="M260.183,195.036c-3.362,0-6.678,1.41-8.934,3.785c-1.939-2.409-4.842-3.785-8.013-3.785
					c-2.634,0-4.944,0.697-6.873,2.074l-0.075-1.453h-8.675l0.378,31.587h9.139v-18.614c0-2.485,1.812-5.254,4.411-5.254
					c3.216,0,3.563,3.753,3.563,5.366v18.502h9.141v-19.009c0-2.293,1.766-4.859,4.129-4.859c0.937,0,3.789,0,3.789,6.27v17.598
					h9.141v-18.22C271.306,198.699,265.314,195.036,260.183,195.036z"/></g><path fill="#333" d="M418.124 211.275c19.771-9.401 33.473-29.534 33.473-52.809 0-32.238-26.276-58.466-58.575-58.466-32.298 0-58.574 26.228-58.574 58.466 0 10.512 2.802 20.378 7.688 28.909-9.096 4.083-15.448 13.225-15.448 23.825 0 8.508 4.092 16.076 10.41 20.845-11.837 13.262-19.053 30.732-19.053 49.865V363c0 2.762 2.239 5 5 5H463c2.761 0 5-2.238 5-5v-81.09C468 249.37 447.156 221.622 418.124 211.275zM393.021 110c19.403 0 37.371 11.97 44.853 29.875-24.039 7.566-51.127-4.04-62.262-26.643C381.157 111.099 387.081 110 393.021 110zM366.703 117.763c6.284 12.76 16.671 22.911 29.762 28.899 13.734 6.282 29.858 7.32 44.278 2.802 5.56 29.406-17.839 57.468-47.721 57.468-26.784 0-48.574-21.741-48.574-48.466C344.447 141.415 353.325 126.404 366.703 117.763zM408.016 214.982v13.137c0 8.268-6.727 14.994-14.994 14.994s-14.994-6.727-14.994-14.994v-13.137C387.815 217.572 398.228 217.572 408.016 214.982zM336.687 211.2c0-7.217 4.772-13.34 11.325-15.381 5.438 6.514 12.258 11.84 20.016 15.509v5.033c-2.157 6.353-8.166 10.944-15.239 10.944C343.91 227.305 336.687 220.08 336.687 211.2zM349.625 358h-21.581v-55.535h21.581V358zM458 358h-21.582v-55.535H458V358zM458 292.465h-26.582c-2.761 0-5 2.238-5 5V358h-66.794v-60.535c0-2.762-2.239-5-5-5h-26.581V281.91c0-17.633 7.062-33.646 18.504-45.365 7.234 1.783 15.845.021 21.804-4.428 1.919 11.888 12.249 20.997 24.67 20.997 13.782 0 24.994-11.212 24.994-24.994v-6.169C441.472 231.762 458 254.936 458 281.91V292.465zM100.058 211.286c19.783-9.396 33.495-29.536 33.495-52.82 0-32.238-26.276-58.466-58.574-58.466-32.298 0-58.575 26.228-58.575 58.466 0 23.278 13.705 43.413 33.479 52.812C20.849 221.625 0 249.368 0 281.91V363c0 2.762 2.239 5 5 5h139.957c2.761 0 5-2.238 5-5v-81.09C149.957 249.364 129.098 221.628 100.058 211.286zM121.054 143.153c-19.81.557-37.876-12.659-40.698-32.85C98.936 112.355 115.119 125.423 121.054 143.153zM69.602 110.304c-2.823 20.19-20.9 33.421-40.699 32.85C34.836 125.427 51.016 112.356 69.602 110.304zM26.404 158.466c0-1.796.106-3.567.298-5.313 20.173.294 38.961-8.059 48.277-26.822 9.317 18.766 28.122 27.123 48.276 26.822.192 1.746.298 3.517.298 5.313 0 26.725-21.791 48.466-48.574 48.466C48.194 206.932 26.404 185.19 26.404 158.466zM89.972 214.982v13.137c0 8.268-6.726 14.994-14.994 14.994s-14.994-6.727-14.994-14.994v-13.137C69.742 217.564 80.216 217.564 89.972 214.982zM31.582 358H10v-55.535h21.582V358zM36.582 292.465H10V281.91c0-26.974 16.529-50.146 39.984-59.959v6.168c0 13.782 11.212 24.994 24.994 24.994s24.994-11.212 24.994-24.994v-6.163c23.455 9.813 39.984 32.98 39.984 59.954v10.555h-26.581c-2.761 0-5 2.238-5 5V358H41.582v-60.535C41.582 294.703 39.343 292.465 36.582 292.465zM139.957 358h-21.581v-55.535h21.581V358z"/></svg>